<svg enable-background="new 0 0 64 64" viewBox="0 0 64 80" xmlns="http://www.w3.org/2000/svg"><g fill="#289bd7"><path d="m57.984 15.188c-.256 0-.512-.098-.707-.293l-7.074-7.071c-.188-.188-.293-.441-.293-.707s.105-.52.293-.707l3.537-3.537c.375-.375 1.039-.375 1.414 0l7.074 7.074c.188.188.293.442.293.707 0 .266-.105.52-.293.707l-3.537 3.534c-.195.196-.451.293-.707.293zm-5.66-8.071 5.66 5.657 2.123-2.12-5.66-5.66z"/><path d="m43.84 16.604c-.256 0-.512-.098-.707-.293-.391-.391-.391-1.023 0-1.414l7.779-7.781c.391-.391 1.023-.391 1.414 0s.391 1.023 0 1.414l-7.779 7.781c-.195.196-.451.293-.707.293z"/><path d="m49.498 22.262c-.256 0-.512-.098-.707-.293-.391-.391-.391-1.023 0-1.414l7.779-7.778c.391-.391 1.023-.391 1.414 0s.391 1.023 0 1.414l-7.779 7.778c-.195.195-.451.293-.707.293z"/><path d="m41.434 14.2c-.256 0-.512-.098-.707-.293-2.463-2.464-6.259-3.639-9.191-.709-.391.391-1.023.391-1.414 0s-.391-1.023 0-1.414c3.332-3.331 8.275-3.037 12.02.709.391.391.391 1.023 0 1.414-.197.196-.453.293-.708.293z"/><path d="m43.84 16.604c-.256 0-.512-.098-.707-.293l-2.406-2.404c-.391-.39-.391-1.023 0-1.414s1.023-.391 1.414 0l2.406 2.404c.391.39.391 1.023 0 1.414-.195.196-.451.293-.707.293z"/><path d="m52.828 35.493c-.256 0-.512-.098-.707-.293-.391-.391-.391-1.023 0-1.414 2.93-2.93 1.756-6.729-.707-9.193-.391-.391-.391-1.024 0-1.414.391-.391 1.023-.391 1.414 0 3.746 3.748 4.037 8.691.707 12.021-.195.196-.451.293-.707.293z"/><path d="m52.121 24.886c-.256 0-.512-.098-.707-.293l-2.623-2.623c-.391-.391-.391-1.023 0-1.414s1.023-.391 1.414 0l2.623 2.623c.391.391.391 1.023 0 1.414-.195.195-.451.293-.707.293z"/><path d="m6.08 38.239c-.256 0-.512-.098-.707-.293-.391-.391-.391-1.023 0-1.414l24.748-24.748c.391-.391 1.023-.391 1.414 0s.391 1.023 0 1.414l-24.748 24.748c-.195.196-.451.293-.707.293z"/><path d="m28.088 60.247c-.256 0-.512-.098-.707-.293-.391-.391-.391-1.023 0-1.414l24.748-24.747c.391-.391 1.023-.391 1.414 0s.391 1.023 0 1.414l-24.748 24.747c-.195.195-.451.293-.707.293z"/><path d="m6.08 43.897c-.256 0-.513-.098-.708-.294-1.945-1.949-1.945-5.121 0-7.07.391-.393 1.025-.391 1.414-.002.392.391.392 1.023.002 1.414-1.169 1.171-1.169 3.075 0 4.246.39.391.39 1.023-.002 1.414-.194.195-.45.292-.706.292z"/><path d="m25.26 61.42c-1.335 0-2.591-.521-3.535-1.465-.391-.391-.391-1.023 0-1.414s1.023-.391 1.414 0c1.135 1.135 3.108 1.134 4.241-.001.391-.391 1.024-.39 1.415-.001.391.391.391 1.023.001 1.415-.945.945-2.2 1.466-3.536 1.466z"/><path d="m22.432 60.248c-.256 0-.512-.098-.707-.293l-16.352-16.351c-.391-.391-.391-1.023 0-1.414s1.023-.391 1.414 0l16.352 16.351c.391.391.391 1.023 0 1.414-.196.195-.451.293-.707.293z"/><path d="m31.004 49.315c-.256 0-.512-.098-.707-.293l-14-14c-.188-.188-.293-.441-.293-.707s.105-.52.293-.707l12.002-12c.391-.391 1.023-.391 1.414 0s.391 1.023 0 1.414l-11.295 11.293 12.586 12.586 11.293-11.292c.391-.391 1.023-.391 1.414 0s.391 1.023 0 1.414l-12 11.999c-.195.196-.451.293-.707.293z"/><path d="m43.004 37.316c-.256 0-.512-.098-.707-.293l-13.998-14.001c-.391-.391-.391-1.023 0-1.414s1.023-.391 1.414 0l13.998 14.001c.391.391.391 1.023 0 1.414-.195.196-.451.293-.707.293z"/><path d="m63.004 37.317c-.256 0-.512-.098-.707-.293l-2-2.002c-.391-.391-.391-1.024 0-1.414.391-.391 1.023-.391 1.414 0l2 2.002c.391.391.391 1.024 0 1.414-.195.196-.451.293-.707.293z"/><path d="m59.004 37.315c-.256 0-.512-.098-.707-.293-.391-.391-.391-1.023 0-1.414l2-2c.391-.391 1.023-.391 1.414 0s.391 1.023 0 1.414l-2 2c-.195.196-.451.293-.707.293z"/><path d="m59.004 37.315c-.256 0-.512-.098-.707-.293l-2-2c-.391-.391-.391-1.023 0-1.414s1.023-.391 1.414 0l2 2c.391.391.391 1.023 0 1.414-.195.196-.451.293-.707.293z"/><path d="m55.004 37.316c-.256 0-.512-.098-.707-.293-.391-.391-.391-1.023 0-1.414l2-2.001c.391-.391 1.023-.391 1.414 0s.391 1.023 0 1.414l-2 2.001c-.195.196-.451.293-.707.293z"/><path d="m55.004 37.316c-.256 0-.512-.098-.707-.293l-2-2.001c-.391-.391-.391-1.023 0-1.414s1.023-.391 1.414 0l2 2.001c.391.391.391 1.023 0 1.414-.195.196-.451.293-.707.293z"/><path d="m51.004 37.315c-.256 0-.512-.098-.707-.293l-2-2c-.391-.391-.391-1.023 0-1.414s1.023-.391 1.414 0l2 2c.391.391.391 1.023 0 1.414-.195.196-.451.293-.707.293z"/><path d="m47.006 37.317c-.256 0-.511-.098-.706-.292-.392-.391-.392-1.023-.002-1.414l1.998-2.002c.391-.393 1.023-.391 1.414-.002.392.391.392 1.023.002 1.414l-1.998 2.002c-.195.197-.452.294-.708.294z"/><path d="m51.02 37.316c-.256 0-.512-.098-.707-.293-.391-.391-.391-1.023 0-1.414l2-2.001c.391-.391 1.023-.391 1.414 0s.391 1.023 0 1.414l-2 2.001c-.196.196-.452.293-.707.293z"/><path d="m47.006 37.317c-.256 0-.512-.098-.707-.293l-2.002-2.002c-.391-.391-.391-1.023 0-1.414s1.023-.391 1.414 0l2.002 2.002c.391.391.391 1.023 0 1.414-.195.196-.451.293-.707.293z"/><path d="m43.004 37.316c-.256 0-.512-.098-.707-.293-.391-.391-.391-1.023 0-1.414l2-2.001c.391-.391 1.023-.391 1.414 0s.391 1.023 0 1.414l-2 2.001c-.195.196-.451.293-.707.293z"/><path d="m43.004 37.316c-.256 0-.512-.098-.707-.293l-2-2.001c-.391-.391-.391-1.023 0-1.414s1.023-.391 1.414 0l2 2.001c.391.391.391 1.023 0 1.414-.195.196-.451.293-.707.293z"/><path d="m39.004 37.315c-.256 0-.512-.098-.707-.293-.391-.391-.391-1.023 0-1.414l2-2c.391-.391 1.023-.391 1.414 0s.391 1.023 0 1.414l-2 2c-.195.196-.451.293-.707.293z"/><path d="m39.004 37.315c-.256 0-.512-.098-.707-.293l-2-2c-.391-.391-.391-1.023 0-1.414s1.023-.391 1.414 0l2 2c.391.391.391 1.023 0 1.414-.195.196-.451.293-.707.293z"/><path d="m35.006 37.317c-.256 0-.511-.098-.706-.292-.392-.391-.392-1.023-.002-1.414l1.998-2.002c.391-.393 1.023-.391 1.414-.002.392.391.392 1.023.002 1.414l-1.998 2.002c-.195.197-.452.294-.708.294z"/><path d="m35.006 37.317c-.256 0-.512-.098-.707-.293l-2.002-2.002c-.391-.391-.391-1.023 0-1.414s1.023-.391 1.414 0l2.002 2.002c.391.391.391 1.023 0 1.414-.195.196-.451.293-.707.293z"/><path d="m31.004 37.316c-.256 0-.512-.098-.707-.293-.391-.391-.391-1.023 0-1.414l2-2.001c.391-.391 1.023-.391 1.414 0s.391 1.023 0 1.414l-2 2.001c-.195.196-.451.293-.707.293z"/><path d="m31.004 37.316c-.256 0-.512-.098-.707-.293l-2-2.001c-.391-.391-.391-1.023 0-1.414s1.023-.391 1.414 0l2 2.001c.391.391.391 1.023 0 1.414-.195.196-.451.293-.707.293z"/><path d="m27.004 37.315c-.256 0-.512-.098-.707-.293-.391-.391-.391-1.023 0-1.414l2-2c.391-.391 1.023-.391 1.414 0s.391 1.023 0 1.414l-2 2c-.195.196-.451.293-.707.293z"/><path d="m27.004 37.315c-.256 0-.512-.098-.707-.293l-2-2c-.391-.391-.391-1.023 0-1.414s1.023-.391 1.414 0l2 2c.391.391.391 1.023 0 1.414-.195.196-.451.293-.707.293z"/><path d="m23.004 37.317c-.256 0-.512-.098-.707-.293-.391-.39-.391-1.023 0-1.414l2-2.002c.391-.391 1.023-.391 1.414 0 .391.39.391 1.023 0 1.414l-2 2.002c-.195.196-.451.293-.707.293z"/><path d="m23.004 37.317c-.256 0-.512-.098-.707-.293l-2-2.002c-.391-.391-.391-1.024 0-1.414.391-.391 1.023-.391 1.414 0l2 2.002c.391.391.391 1.024 0 1.414-.195.196-.451.293-.707.293z"/><path d="m19.004 37.315c-.256 0-.512-.098-.707-.293-.391-.391-.391-1.023 0-1.414l2-2c.391-.391 1.023-.391 1.414 0s.391 1.023 0 1.414l-2 2c-.195.196-.451.293-.707.293z"/><path d="m19.004 37.315c-.256 0-.512-.098-.707-.293l-2-2c-.391-.391-.391-1.023 0-1.414s1.023-.391 1.414 0l2 2c.391.391.391 1.023 0 1.414-.195.196-.451.293-.707.293z"/><path d="m15.004 37.315c-.256 0-.512-.098-.707-.293-.391-.391-.391-1.023 0-1.414l2-2c.391-.391 1.023-.391 1.414 0s.391 1.023 0 1.414l-2 2c-.195.196-.451.293-.707.293z"/><path d="m15.006 37.315c-.256 0-.512-.098-.707-.293l-2-2c-.391-.391-.391-1.023 0-1.414s1.023-.391 1.414 0l2 2c.391.391.391 1.023 0 1.414-.195.196-.451.293-.707.293z"/><path d="m11.004 37.317c-.256 0-.512-.098-.707-.293-.391-.39-.391-1.023 0-1.414l2-2.002c.391-.391 1.023-.391 1.414 0 .391.39.391 1.023 0 1.414l-2 2.002c-.195.196-.451.293-.707.293z"/><path d="m11.004 37.317c-.256 0-.512-.098-.707-.293l-2-2.002c-.391-.391-.391-1.024 0-1.414.391-.391 1.023-.391 1.414 0l2 2.002c.391.391.391 1.024 0 1.414-.195.196-.451.293-.707.293z"/><path d="m7.004 37.315c-.256 0-.512-.098-.707-.293-.391-.391-.391-1.023 0-1.414l2-2c.391-.391 1.023-.391 1.414 0s.391 1.023 0 1.414l-2 2c-.195.196-.451.293-.707.293z"/><path d="m7.004 37.315c-.256 0-.512-.098-.707-.293l-2-2c-.391-.391-.391-1.023 0-1.414s1.023-.391 1.414 0l2 2c.391.391.391 1.023 0 1.414-.195.196-.451.293-.707.293z"/><path d="m3.004 37.315c-.256 0-.512-.098-.707-.293-.391-.391-.391-1.023 0-1.414l2-2c.391-.391 1.023-.391 1.414 0s.391 1.023 0 1.414l-2 2c-.195.196-.451.293-.707.293z"/><path d="m3.004 37.315c-.256 0-.512-.098-.707-.293l-2.008-2.008c-.391-.391-.391-1.023 0-1.414s1.023-.391 1.414 0l2.008 2.008c.391.391.391 1.023 0 1.414-.195.196-.451.293-.707.293z"/><path d="m45.713 25.69c-1.322 0-2.962-1.169-4.057-2.263-1.764-1.764-2.998-4.091-1.778-5.313.223-.223.62-.486 1.259-.486 1.322 0 2.963 1.168 4.057 2.262 1.764 1.765 2.996 4.092 1.776 5.313-.222.223-.619.487-1.257.487zm-4.256-5.998c.165.493.662 1.37 1.613 2.321.924.923 1.802 1.441 2.322 1.612-.165-.493-.662-1.369-1.613-2.321-.924-.923-1.802-1.441-2.322-1.612z"/><path d="m33.047 27.36c-.256 0-.512-.098-.707-.293-.391-.391-.391-1.023 0-1.414l7.539-7.539c.391-.391 1.023-.391 1.414 0s.391 1.023 0 1.414l-7.539 7.539c-.195.196-.451.293-.707.293z"/><path d="m38.723 33.036c-.256 0-.512-.098-.707-.293-.391-.391-.391-1.023 0-1.414l7.539-7.538c.391-.391 1.023-.391 1.414 0s.391 1.023 0 1.414l-7.539 7.538c-.196.195-.451.293-.707.293z"/><path d="m35.17 29.48c-.256 0-.512-.098-.707-.293-.391-.391-.391-1.023 0-1.414l6.512-6.512c.391-.391 1.023-.391 1.414 0s.391 1.023 0 1.414l-6.512 6.512c-.195.196-.451.293-.707.293z"/><path d="m20.499 50.901c-.388 0-.865-.097-1.445-.361-.843-.384-1.771-1.058-2.611-1.898-1.764-1.766-2.996-4.093-1.778-5.313.391-.393 1.025-.391 1.414-.002.354.354.389.906.102 1.298.02.364.502 1.426 1.678 2.603 1.176 1.176 2.236 1.657 2.601 1.677.39-.289.945-.255 1.298.098.392.391.392 1.023.002 1.414-.219.217-.617.484-1.261.484z"/><path d="m15.372 45.035c-.256 0-.512-.098-.707-.293-.391-.391-.391-1.023 0-1.414l5.677-5.676c.391-.391 1.023-.391 1.414 0s.391 1.023 0 1.414l-5.677 5.676c-.195.196-.451.293-.707.293z"/><path d="m21.05 50.71c-.256 0-.512-.098-.707-.293-.391-.391-.391-1.023 0-1.414l5.675-5.675c.391-.391 1.023-.391 1.414 0s.391 1.023 0 1.414l-5.675 5.675c-.195.195-.451.293-.707.293z"/><path d="m16.468 48.183c-.256 0-.512-.098-.707-.293-.391-.391-.391-1.023 0-1.414l6.7-6.701c.391-.391 1.023-.391 1.414 0s.391 1.023 0 1.414l-6.7 6.701c-.196.195-.451.293-.707.293z"/></g></svg>