<svg enable-background="new 0 0 64 64" viewBox="0 0 64 80" xmlns="http://www.w3.org/2000/svg"><path fill="rgb(40, 155, 215)" d="m41.005 11.999h-37.998c-.553 0-1-.448-1-1s.447-1 1-1h37.998c.553 0 1 .448 1 1s-.447 1-1 1z"/><path fill="rgb(40, 155, 215)" d="m1.005 13.999c-.553 0-1-.448-1-1 0-1.655 1.347-3.002 3.002-3.002.553 0 1 .448 1 1s-.447 1-1 1-1.002.45-1.002 1.002-.447 1-1 1z"/><path fill="rgb(40, 155, 215)" d="m41.005 54.001h-37.998c-.553 0-1-.447-1-1s.447-1 1-1h37.998c.553 0 1 .447 1 1s-.447 1-1 1z"/><path fill="rgb(40, 155, 215)" d="m3.007 54.003c-1.655 0-3.002-1.347-3.002-3.002 0-.553.447-1 1-1s1 .447 1 1 .449 1.002 1.002 1.002 1 .447 1 1-.447 1-1 1z"/><path fill="rgb(40, 155, 215)" d="m1.005 52.001c-.553 0-1-.447-1-1v-38.002c0-.552.447-1 1-1s1 .448 1 1v38.002c0 .553-.447 1-1 1z"/><path fill="rgb(40, 155, 215)" d="m49.007 19.999c-.553 0-1-.448-1-1 0-3.861-3.141-7.002-7.002-7.002-.553 0-1-.448-1-1s.447-1 1-1c4.964 0 9.002 4.038 9.002 9.002 0 .552-.447 1-1 1z"/><path fill="rgb(40, 155, 215)" d="m41.005 54.003c-.553 0-1-.447-1-1s.447-1 1-1c3.861 0 7.002-3.141 7.002-7.002 0-.553.447-1 1-1s1 .447 1 1c0 4.964-4.038 9.002-9.002 9.002z"/><path fill="rgb(40, 155, 215)" d="m57.004 26.998h-7.997c-.553 0-1-.448-1-1s.447-1 1-1h7.997c.553 0 1 .448 1 1s-.447 1-1 1z"/><path fill="rgb(40, 155, 215)" d="m57.004 37h-7.997c-.553 0-1-.447-1-1s.447-1 1-1h7.997c.553 0 1 .447 1 1s-.447 1-1 1z"/><path fill="rgb(40, 155, 215)" d="m49.007 26.998c-.553 0-1-.448-1-1v-6.999c0-.552.447-1 1-1s1 .448 1 1v6.999c0 .552-.447 1-1 1z"/><path fill="rgb(40, 155, 215)" d="m49.007 46.001c-.553 0-1-.447-1-1v-8.642c0-.553.447-1 1-1s1 .447 1 1v8.642c0 .553-.447 1-1 1z"/><path fill="rgb(40, 155, 215)" d="m63.005 38.999h-6.001c-.553 0-1-.447-1-1v-13.999c0-.552.447-1 1-1h6.001c.553 0 1 .448 1 1v13.999c0 .553-.447 1-1 1zm-5.001-2h4.001v-11.999h-4.001z"/><path fill="rgb(40, 155, 215)" d="m49.007 46.001c-.256 0-.512-.098-.707-.293l-2-2c-.391-.391-.391-1.023 0-1.414s1.023-.391 1.414 0l2 2c.391.391.391 1.023 0 1.414-.195.195-.451.293-.707.293z"/><path fill="rgb(40, 155, 215)" d="m45.006 46.002c-.256 0-.512-.098-.707-.293-.391-.391-.391-1.023 0-1.414l2.001-2.001c.391-.391 1.023-.391 1.414 0s.391 1.023 0 1.414l-2.001 2.001c-.195.195-.451.293-.707.293z"/><path fill="rgb(40, 155, 215)" d="m45.006 46.001c-.256 0-.512-.098-.707-.293l-2-2c-.391-.391-.391-1.023 0-1.414s1.023-.391 1.414 0l2 2c.391.391.391 1.023 0 1.414-.195.195-.451.293-.707.293z"/><path fill="rgb(40, 155, 215)" d="m41.005 46.002c-.256 0-.512-.098-.707-.293-.391-.391-.391-1.023 0-1.414l2.001-2.001c.391-.391 1.023-.391 1.414 0s.391 1.023 0 1.414l-2.001 2.001c-.195.195-.451.293-.707.293z"/><path fill="rgb(40, 155, 215)" d="m41.005 46.001c-.256 0-.512-.098-.707-.293l-2-2c-.391-.391-.391-1.023 0-1.414s1.023-.391 1.414 0l2 2c.391.391.391 1.023 0 1.414-.195.195-.451.293-.707.293z"/><path fill="rgb(40, 155, 215)" d="m33 46.002c-.256 0-.512-.098-.707-.293-.391-.391-.391-1.023 0-1.414l5.995-5.995c.391-.391 1.023-.391 1.414 0s.391 1.023 0 1.414l-5.995 5.995c-.195.195-.451.293-.707.293z"/><path fill="rgb(40, 155, 215)" d="m37.004 46.001c-.256 0-.512-.098-.707-.293l-2-2c-.391-.391-.391-1.023 0-1.414s1.023-.391 1.414 0l2 2c.391.391.391 1.023 0 1.414-.195.195-.451.293-.707.293z"/><path fill="rgb(40, 155, 215)" d="m37.007 46.002c-.256 0-.512-.098-.707-.293-.391-.391-.391-1.023 0-1.414l2.001-2.001c.391-.391 1.023-.391 1.414 0s.391 1.023 0 1.414l-2.001 2.001c-.195.195-.451.293-.707.293z"/><path fill="rgb(40, 155, 215)" d="m33.003 46.001c-.256 0-.512-.098-.707-.293l-2-2c-.391-.391-.391-1.023 0-1.414s1.023-.391 1.414 0l2 2c.391.391.391 1.023 0 1.414-.195.195-.451.293-.707.293z"/><path fill="rgb(40, 155, 215)" d="m29.002 46.002c-.256 0-.512-.098-.707-.293-.391-.391-.391-1.023 0-1.414l2.001-2.001c.391-.391 1.023-.391 1.414 0s.391 1.023 0 1.414l-2.001 2.001c-.195.195-.451.293-.707.293z"/><path fill="rgb(40, 155, 215)" d="m29.002 46.001c-.256 0-.512-.098-.707-.293l-2-2c-.391-.391-.391-1.023 0-1.414s1.023-.391 1.414 0l2 2c.391.391.391 1.023 0 1.414-.195.195-.451.293-.707.293z"/><path fill="rgb(40, 155, 215)" d="m25.001 46.002c-.256 0-.512-.098-.707-.293-.391-.391-.391-1.023 0-1.414l2.001-2.001c.391-.391 1.023-.391 1.414 0s.391 1.023 0 1.414l-2.001 2.001c-.195.195-.451.293-.707.293z"/><path fill="rgb(40, 155, 215)" d="m25.001 46.001c-.256 0-.512-.098-.707-.293l-2-2c-.391-.391-.391-1.023 0-1.414s1.023-.391 1.414 0l2 2c.391.391.391 1.023 0 1.414-.195.195-.451.293-.707.293z"/><path fill="rgb(40, 155, 215)" d="m21 46.002c-.256 0-.512-.098-.707-.293-.391-.391-.391-1.023 0-1.414l2.001-2.001c.391-.391 1.023-.391 1.414 0s.391 1.023 0 1.414l-2.001 2.001c-.195.195-.451.293-.707.293z"/><path fill="rgb(40, 155, 215)" d="m21 46.001c-.256 0-.512-.098-.707-.293l-2-2c-.391-.391-.391-1.023 0-1.414s1.023-.391 1.414 0l2 2c.391.391.391 1.023 0 1.414-.195.195-.451.293-.707.293z"/><path fill="rgb(40, 155, 215)" d="m16.999 46.002c-.256 0-.512-.098-.707-.293-.391-.391-.391-1.023 0-1.414l2.001-2.001c.391-.391 1.023-.391 1.414 0s.391 1.023 0 1.414l-2.001 2.001c-.195.195-.451.293-.707.293z"/><path fill="rgb(40, 155, 215)" d="m16.999 46.001c-.256 0-.512-.098-.707-.293l-2-2c-.391-.391-.391-1.023 0-1.414s1.023-.391 1.414 0l2 2c.391.391.391 1.023 0 1.414-.195.195-.451.293-.707.293z"/><path fill="rgb(40, 155, 215)" d="m12.998 46.002c-.256 0-.512-.098-.707-.293-.391-.391-.391-1.023 0-1.414l2.001-2.001c.391-.391 1.023-.391 1.414 0s.391 1.023 0 1.414l-2.001 2.001c-.195.195-.451.293-.707.293z"/><path fill="rgb(40, 155, 215)" d="m12.998 46.001c-.256 0-.512-.098-.707-.293l-2-2c-.391-.391-.391-1.023 0-1.414s1.023-.391 1.414 0l2 2c.391.391.391 1.023 0 1.414-.195.195-.451.293-.707.293z"/><path fill="rgb(40, 155, 215)" d="m8.997 46.002c-.256 0-.512-.098-.707-.293-.391-.391-.391-1.023 0-1.414l2.001-2.001c.391-.391 1.023-.391 1.414 0s.391 1.023 0 1.414l-2.001 2.001c-.195.195-.451.293-.707.293z"/><path fill="rgb(40, 155, 215)" d="m8.997 46.001c-.256 0-.512-.098-.707-.293l-2-2c-.391-.391-.391-1.023 0-1.414s1.023-.391 1.414 0l2 2c.391.391.391 1.023 0 1.414-.195.195-.451.293-.707.293z"/><path fill="rgb(40, 155, 215)" d="m4.996 46.002c-.256 0-.512-.098-.707-.293-.391-.391-.391-1.023 0-1.414l2.001-2.001c.391-.391 1.023-.391 1.414 0s.391 1.023 0 1.414l-2.001 2.001c-.195.195-.451.293-.707.293z"/><path fill="rgb(40, 155, 215)" d="m4.996 46.001c-.256 0-.512-.098-.707-.293l-2-2c-.391-.391-.391-1.023 0-1.414s1.023-.391 1.414 0l2 2c.391.391.391 1.023 0 1.414-.195.195-.451.293-.707.293z"/><path fill="rgb(40, 155, 215)" d="m.995 46.002c-.256 0-.512-.098-.707-.293-.391-.391-.391-1.023 0-1.414l2.001-2.001c.391-.391 1.023-.391 1.414 0s.391 1.023 0 1.414l-2.001 2.001c-.195.195-.451.293-.707.293z"/><path fill="rgb(40, 155, 215)" d="m10.998 44.001c-.553 0-1-.447-1-1v-3c0-.553.447-1 1-1s1 .447 1 1v3c0 .553-.447 1-1 1z"/><path fill="rgb(40, 155, 215)" d="m10.998 41.001h-3.001c-.553 0-1-.447-1-1s.447-1 1-1h3.001c.553 0 1 .447 1 1s-.447 1-1 1z"/><path fill="rgb(40, 155, 215)" d="m7.997 41.001c-.553 0-1-.447-1-1v-5c0-.553.447-1 1-1s1 .447 1 1v5c0 .553-.447 1-1 1z"/><path fill="rgb(40, 155, 215)" d="m12.996 36.001h-4.999c-.553 0-1-.447-1-1s.447-1 1-1h4.999c.553 0 1 .447 1 1s-.447 1-1 1z"/><path fill="rgb(40, 155, 215)" d="m17.002 40.007c-2.76 0-5.006-2.246-5.006-5.006 0-.553.447-1 1-1s1 .447 1 1c0 1.657 1.349 3.006 3.006 3.006.553 0 1 .447 1 1s-.447 1-1 1z"/><path fill="rgb(40, 155, 215)" d="m38.995 40.007h-21.993c-.553 0-1-.447-1-1s.447-1 1-1h21.993c.553 0 1 .447 1 1s-.447 1-1 1z"/><path fill="rgb(40, 155, 215)" d="m26.001 40.003c-.553 0-1-.447-1-1v-4.001c0-.553.447-1 1-1s1 .447 1 1v4.001c0 .553-.447 1-1 1z"/><path fill="rgb(40, 155, 215)" d="m32.004 20.999h-16.009c-.553 0-1-.448-1-1s.447-1 1-1h16.009c.553 0 1 .448 1 1s-.447 1-1 1z"/><path fill="rgb(40, 155, 215)" d="m32.004 36.002h-16.009c-.553 0-1-.447-1-1s.447-1 1-1h16.009c.553 0 1 .447 1 1s-.447 1-1 1z"/><path fill="rgb(40, 155, 215)" d="m34.004 22.999c-.553 0-1-.448-1-1 0-.551-.448-1-1-1-.553 0-1-.448-1-1s.447-1 1-1c1.654 0 3 1.346 3 3 0 .552-.447 1-1 1z"/><path fill="rgb(40, 155, 215)" d="m32.004 36.002c-.553 0-1-.447-1-1s.447-1 1-1c.552 0 1-.448 1-1s.447-1 1-1 1 .448 1 1c0 1.654-1.346 3-3 3z"/><path fill="rgb(40, 155, 215)" d="m18.001 22.999c-.553 0-1-.448-1-1 0-.551-.448-1-1-1-.553 0-1-.448-1-1s.447-1 1-1c1.654 0 3 1.346 3 3 0 .552-.447 1-1 1z"/><path fill="rgb(40, 155, 215)" d="m16.001 36.003c-.553 0-1-.447-1-1s.447-1 1-1c.552 0 1-.448 1-1s.447-1 1-1 1 .448 1 1c0 1.654-1.346 3-3 3z"/><path fill="rgb(40, 155, 215)" d="m18.001 34.003c-.553 0-1-.447-1-1v-11.004c0-.552.447-1 1-1s1 .448 1 1v11.004c0 .553-.447 1-1 1z"/><path fill="rgb(40, 155, 215)" d="m34.004 34.002c-.553 0-1-.447-1-1v-11.003c0-.552.447-1 1-1s1 .448 1 1v11.003c0 .553-.447 1-1 1z"/><path fill="rgb(40, 155, 215)" d="m26.001 21.001c-.553 0-1-.448-1-1v-6.004c0-.552.447-1 1-1s1 .448 1 1v6.004c0 .552-.447 1-1 1z"/><path fill="rgb(40, 155, 215)" d="m30.004 16.997h-4.003c-.553 0-1-.448-1-1s.447-1 1-1h4.003c.553 0 1 .448 1 1s-.447 1-1 1z"/><path fill="rgb(40, 155, 215)" d="m34.004 17.999h-4c-.553 0-1-.448-1-1s.447-1 1-1h4c.553 0 1 .448 1 1s-.447 1-1 1z"/><path fill="rgb(40, 155, 215)" d="m38.995 40.007c-.553 0-1-.447-1-1v-3.006c0-.553.447-1 1-1s1 .447 1 1v3.006c0 .553-.447 1-1 1z"/><path fill="rgb(40, 155, 215)" d="m28.006 30.235c-.274 0-.548-.112-.745-.333-.368-.412-.333-1.044.078-1.412.423-.379.666-.921.666-1.489 0-1.103-.897-2-2-2s-2 .897-2 2c0 .566.242 1.109.665 1.488.411.369.445 1.001.076 1.412-.369.412-1 .445-1.412.076-.845-.758-1.329-1.843-1.329-2.977 0-2.206 1.794-4 4-4s4 1.794 4 4c0 1.136-.485 2.222-1.332 2.979-.192.172-.43.256-.667.256z"/><path fill="rgb(40, 155, 215)" d="m24.006 32c-.552 0-.999-.446-1-.998l-.004-1.767c-.001-.553.445-1.001.998-1.002h.002c.552 0 .999.446 1 .998l.004 1.767c.001.553-.445 1.001-.998 1.002 0 0-.001 0-.002 0z"/><path fill="rgb(40, 155, 215)" d="m28.006 32c-.553 0-1-.448-1-1v-1.765c0-.552.447-1 1-1s1 .448 1 1v1.765c0 .552-.447 1-1 1z"/><path fill="rgb(40, 155, 215)" d="m28.006 32h-4c-.553 0-1-.448-1-1s.447-1 1-1h4c.553 0 1 .448 1 1s-.447 1-1 1z"/></svg>