<svg enable-background="new 0 0 64 64" viewBox="0 0 64 80" xmlns="http://www.w3.org/2000/svg"><g fill="#289bd7"><path d="m32.03 32.987c-.553 0-1.005-.448-1.005-1s.442-1 .994-1h.011c.552 0 1 .448 1 1s-.448 1-1 1z"/><path d="m32 37.987c-3.309 0-6-2.691-6-6s2.691-6 6-6 6 2.691 6 6-2.691 6-6 6zm0-10c-2.206 0-4 1.794-4 4s1.794 4 4 4 4-1.794 4-4c0-2.205-1.794-4-4-4z"/><path d="m34.354 45.774c-.474 0-.895-.337-.982-.819-.1-.544.26-1.064.803-1.164 4.868-.893 8.737-4.762 9.629-9.629.1-.543.618-.907 1.163-.804.544.1.903.62.804 1.163-1.04 5.68-5.555 10.195-11.234 11.236-.062.013-.123.017-.183.017z"/><path d="m44.789 30.653c-.475 0-.896-.338-.983-.822-.885-4.88-4.757-8.758-9.635-9.648-.543-.1-.903-.62-.804-1.164.1-.543.618-.9 1.163-.804 5.692 1.04 10.211 5.564 11.244 11.26.098.543-.263 1.063-.806 1.162-.06.011-.12.016-.179.016z"/><path d="m19.209 30.658c-.059 0-.119-.005-.179-.016-.544-.098-.904-.619-.807-1.162 1.031-5.696 5.55-10.223 11.244-11.264.541-.096 1.064.261 1.163.804.1.543-.261 1.064-.804 1.164-4.88.892-8.752 4.771-9.635 9.652-.087.483-.507.822-.982.822z"/><path d="m29.667 45.777c-.059 0-.119-.005-.18-.016-5.69-1.032-10.215-5.549-11.259-11.238-.1-.543.26-1.064.803-1.164.55-.104 1.065.26 1.164.803.895 4.877 4.772 8.747 9.649 9.631.543.099.903.619.806 1.163-.087.482-.508.821-.983.821z"/><path d="m33.039 55.964c-.531 0-.975-.419-.998-.956-.024-.552.403-1.019.955-1.043 11.265-.5 20.481-9.716 20.981-20.98.023-.537.467-.956.998-.956.016 0 .03 0 .045.001.552.024.979.492.955 1.043-.555 12.494-10.396 22.335-22.892 22.89-.014.001-.028.001-.044.001z"/><path d="m54.977 31.972c-.532 0-.975-.419-.998-.957-.491-11.281-9.709-20.508-20.989-21.005-.552-.024-.979-.491-.955-1.043.023-.551.487-.97 1.043-.955 12.306.543 22.364 10.609 22.898 22.917.024.552-.404 1.019-.956 1.042-.014 0-.029.001-.043.001z"/><path d="m9.022 31.97c-.015 0-.029 0-.045-.001-.552-.024-.979-.491-.955-1.042.536-12.306 10.594-22.371 22.899-22.916.015 0 .029-.001.045-.001.531 0 .975.419.998.956.024.552-.403 1.019-.955 1.043-11.278.5-20.497 9.726-20.988 21.004-.024.537-.466.957-.999.957z"/><path d="m30.962 55.965c-.016 0-.03 0-.046-.001-12.493-.556-22.335-10.397-22.892-22.89-.024-.552.403-1.019.955-1.044.53-.022 1.019.402 1.044.955.511 11.452 9.531 20.471 20.983 20.981.551.024.979.492.954 1.044-.023.536-.467.955-.998.955z"/><path d="m31.354 58.979c-.008 0-.016 0-.024 0-14.402-.35-25.965-11.908-26.321-26.311-.014-.552.423-1.011.976-1.024.532-.036 1.011.424 1.024.975.33 13.336 11.034 24.037 24.37 24.361.552.014.988.473.976 1.024-.014.544-.459.975-1.001.975z"/><path d="m32.648 58.979c-.541 0-.986-.432-1-.976-.014-.552.424-1.011.976-1.024 13.335-.326 24.038-11.027 24.367-24.363.014-.551.489-1.016 1.024-.975.553.014.989.472.976 1.024-.355 14.402-11.916 25.96-26.318 26.313-.008.001-.017.001-.025.001z"/><path d="m57.993 32.359c-.542 0-.986-.432-1-.976-.316-13.35-11.022-24.063-24.373-24.388-.419-.011-.827-.011-1.238 0-13.354.324-24.06 11.037-24.375 24.387-.013.552-.515.991-1.023.976-.553-.013-.989-.471-.977-1.023.342-14.419 11.904-25.989 26.323-26.339.439-.013.893-.013 1.342 0 14.416.352 25.979 11.921 26.321 26.34.013.552-.424 1.011-.977 1.023-.007 0-.015 0-.023 0z"/><path d="m35.55 29.468c-.495 0-.926-.368-.991-.872l-3.551-27.465c-.07-.548.316-1.049.864-1.12.542-.076 1.049.317 1.12.863l3.551 27.465c.07.548-.316 1.049-.864 1.12-.043.006-.087.009-.129.009z"/><path d="m63.001 33.004c-.042 0-.085-.003-.129-.008l-27.449-3.536c-.548-.07-.935-.572-.864-1.12.071-.547.563-.937 1.12-.864l27.449 3.536c.548.07.935.572.864 1.12-.065.504-.495.872-.991.872z"/><path d="m32.001 63.997c-.042 0-.086-.003-.129-.008-.548-.071-.935-.572-.864-1.12l3.551-27.465c.071-.547.576-.921 1.12-.864.548.071.935.572.864 1.12l-3.551 27.465c-.065.505-.496.872-.991.872z"/><path d="m35.55 36.532c-.496 0-.926-.368-.991-.872-.07-.548.316-1.049.864-1.12l27.449-3.537c.566-.073 1.05.317 1.12.864.07.548-.316 1.049-.864 1.12l-27.449 3.538c-.044.004-.087.007-.129.007z"/><path d="m28.45 29.468c-.042 0-.086-.002-.129-.008-.548-.071-.935-.572-.864-1.12l3.551-27.465c.071-.546.58-.935 1.12-.863.548.071.935.572.864 1.12l-3.551 27.465c-.065.503-.496.871-.991.871z"/><path d="m.999 33.004c-.496 0-.926-.368-.991-.872-.07-.548.316-1.049.864-1.12l27.449-3.536c.566-.074 1.05.317 1.12.864.07.548-.316 1.049-.864 1.12l-27.449 3.536c-.044.005-.087.008-.129.008z"/><path d="m31.999 63.997c-.495 0-.926-.367-.991-.872l-3.551-27.465c-.07-.548.316-1.049.864-1.12.545-.062 1.049.316 1.12.864l3.551 27.465c.07.548-.316 1.049-.864 1.12-.043.005-.087.008-.129.008z"/><path d="m28.45 36.532c-.042 0-.085-.003-.129-.008l-27.449-3.537c-.548-.07-.935-.572-.864-1.12.071-.546.563-.935 1.12-.864l27.449 3.537c.548.071.935.572.864 1.12-.065.504-.495.872-.991.872z"/><path d="m35.547 29.456c-.256 0-.513-.098-.708-.293-.39-.391-.39-1.024.002-1.415l8.47-8.453c.391-.39 1.023-.39 1.414.001.39.391.39 1.024-.002 1.415l-8.47 8.453c-.195.195-.45.292-.706.292z"/><path d="m20.124 45.005c-.254 0-.507-.096-.702-.288-.394-.387-.397-1.021-.01-1.414l8.353-8.478c.387-.394 1.02-.399 1.414-.01.394.387.397 1.021.01 1.414l-8.353 8.478c-.195.198-.453.298-.712.298z"/><path d="m44.017 45.005c-.256 0-.511-.098-.706-.292l-8.47-8.454c-.392-.391-.392-1.023-.002-1.414.391-.393 1.023-.391 1.414-.002l8.47 8.454c.392.391.392 1.023.002 1.414-.196.196-.453.294-.708.294z"/><path d="m28.477 29.479c-.256 0-.513-.098-.708-.293l-8.462-8.477c-.39-.391-.39-1.024.002-1.414.389-.39 1.023-.391 1.414.001l8.462 8.477c.39.391.39 1.024-.002 1.414-.195.195-.451.292-.706.292z"/><path d="m42.719 58.875c-.392 0-.765-.232-.924-.617l-1.918-4.631c-.211-.511.031-1.096.541-1.307.508-.21 1.096.03 1.307.541l1.918 4.631c.211.511-.031 1.096-.541 1.307-.125.052-.255.076-.383.076z"/><path d="m23.204 11.728c-.393 0-.765-.233-.924-.618l-1.907-4.607c-.211-.51.031-1.095.541-1.306.509-.21 1.097.031 1.307.542l1.907 4.607c.211.51-.031 1.095-.541 1.306-.125.051-.255.076-.383.076z"/><path d="m53.808 54.808c-.256 0-.512-.098-.707-.293l-5.436-5.435c-.391-.391-.391-1.023 0-1.414s1.023-.391 1.414 0l5.436 5.435c.391.391.391 1.023 0 1.414-.196.195-.452.293-.707.293z"/><path d="m15.642 16.622c-.256 0-.512-.098-.707-.293l-5.435-5.434c-.391-.391-.391-1.023 0-1.414s1.023-.391 1.414 0l5.435 5.435c.391.391.391 1.023 0 1.414-.196.194-.452.292-.707.292z"/><path d="m57.876 43.721c-.128 0-.257-.024-.383-.076l-4.626-1.914c-.51-.211-.752-.796-.541-1.307.212-.511.794-.752 1.307-.541l4.626 1.914c.51.211.752.796.541 1.307-.159.384-.531.617-.924.617z"/><path d="m10.744 24.185c-.128 0-.258-.025-.383-.077l-4.61-1.912c-.511-.212-.753-.797-.541-1.307.213-.511.8-.75 1.307-.541l4.61 1.912c.511.212.753.797.541 1.307-.16.386-.532.618-.924.618z"/><path d="m53.263 24.203c-.392 0-.765-.232-.924-.618-.212-.51.03-1.095.541-1.307l4.622-1.916c.509-.209 1.096.03 1.307.541.212.51-.03 1.095-.541 1.307l-4.622 1.916c-.125.052-.255.077-.383.077z"/><path d="m6.131 43.708c-.393 0-.765-.232-.924-.617-.211-.511.031-1.096.541-1.307l4.616-1.911c.509-.209 1.096.031 1.307.541.211.511-.031 1.096-.541 1.307l-4.616 1.911c-.125.052-.255.076-.383.076z"/><path d="m48.382 16.631c-.256 0-.512-.098-.707-.293-.391-.391-.391-1.024 0-1.415l5.436-5.433c.391-.39 1.023-.39 1.414 0s.391 1.024 0 1.415l-5.436 5.433c-.195.195-.451.293-.707.293z"/><path d="m10.196 54.796c-.256 0-.512-.098-.707-.293-.391-.391-.391-1.023 0-1.414l5.435-5.434c.391-.391 1.023-.391 1.414 0s.391 1.023 0 1.414l-5.435 5.434c-.195.195-.451.293-.707.293z"/><path d="m40.82 11.74c-.128 0-.258-.025-.383-.077-.511-.211-.753-.797-.541-1.307l1.913-4.613c.213-.51.799-.75 1.307-.541.511.211.753.797.541 1.307l-1.913 4.613c-.16.385-.532.618-.924.618z"/><path d="m21.282 58.868c-.128 0-.258-.024-.383-.076-.511-.212-.753-.797-.541-1.307l1.917-4.625c.211-.511.8-.751 1.307-.541.511.212.753.797.541 1.307l-1.917 4.625c-.159.385-.532.617-.924.617z"/></g></svg>