<svg enable-background="new 0 0 64 64" viewBox="0 0 64 80" xmlns="http://www.w3.org/2000/svg"><g fill="#289bd7"><path d="m50 64.008c-2.757 0-5-2.243-5-5 0-.553.447-1 1-1s1 .447 1 1c0 1.654 1.346 3 3 3s3-1.346 3-3c0-.553.447-1 1-1s1 .447 1 1c0 2.757-2.243 5-5 5z"/><path d="m14.002 64.008c-2.757 0-5-2.243-5-5 0-.553.447-1 1-1s1 .447 1 1c0 1.654 1.346 3 3 3 .553 0 1 .447 1 1s-.447 1-1 1z"/><path d="m46 5.992c-.553 0-1-.447-1-1 0-1.654-1.346-3-3-3s-3 1.346-3 3c0 .553-.447 1-1 1s-1-.447-1-1c0-2.757 2.243-5 5-5s5 2.243 5 5c0 .553-.447 1-1 1z"/><path d="m46 60.008c-.553 0-1-.447-1-1v-54.016c0-.553.447-1 1-1s1 .447 1 1v54.016c0 .553-.447 1-1 1z"/><path d="m2.002 5.992c-.553 0-1-.447-1-1 0-2.757 2.243-5 5-5 .553 0 1 .447 1 1s-.447 1-1 1c-1.654 0-3 1.346-3 3 0 .553-.447 1-1 1z"/><path d="m10.002 60.008c-.553 0-1-.447-1-1v-54.016c0-.553.447-1 1-1s1 .447 1 1v54.016c0 .553-.447 1-1 1z"/><path d="m38 5.992h-35.998c-.553 0-1-.447-1-1s.447-1 1-1h35.998c.553 0 1 .447 1 1s-.447 1-1 1z"/><path d="m42 1.992h-35.998c-.553 0-1-.447-1-1s.447-1 1-1h35.998c.553 0 1 .447 1 1s-.447 1-1 1z"/><path d="m50 64.008h-35.998c-.553 0-1-.447-1-1s.447-1 1-1h35.998c.553 0 1 .447 1 1s-.447 1-1 1z"/><path d="m54 60.008h-8c-.553 0-1-.447-1-1s.447-1 1-1h8c.553 0 1 .447 1 1s-.447 1-1 1z"/><path d="m40.996 22.016h-25.994c-.553 0-1-.447-1-1v-3c0-.553.447-1 1-1h25.994c.553 0 1 .447 1 1v3c0 .552-.447 1-1 1zm-24.994-2h23.994v-1h-23.994z"/><path d="m41 36.014h-26c-.553 0-1-.447-1-1s.447-1 1-1h26c.553 0 1 .447 1 1s-.447 1-1 1z"/><path d="m41 32.002h-26c-.553 0-1-.447-1-1s.447-1 1-1h26c.553 0 1 .447 1 1s-.447 1-1 1z"/><path d="m41 40.012h-26c-.553 0-1-.447-1-1s.447-1 1-1h26c.553 0 1 .447 1 1s-.447 1-1 1z"/><path d="m41 54h-6.002c-.553 0-1-.447-1-1s.447-1 1-1h6.002c.553 0 1 .447 1 1s-.447 1-1 1z"/><path d="m26.988 44.012h-11.99c-.553 0-1-.447-1-1s.447-1 1-1h11.99c.553 0 1 .447 1 1s-.447 1-1 1z"/><path d="m61.998 17.994c-.553 0-1-.447-1-1 0-2.757-2.243-5-5-5s-5 2.243-5 5c0 .553-.447 1-1 1s-1-.447-1-1c0-3.859 3.141-7 7-7s7 3.141 7 7c0 .553-.447 1-1 1z"/><path d="m55.998 41.994c-3.859 0-7-3.141-7-7 0-.553.447-1 1-1s1 .447 1 1c0 2.757 2.243 5 5 5s5-2.243 5-5c0-.553.447-1 1-1s1 .447 1 1c0 3.86-3.141 7-7 7z"/><path d="m55.998 53.012c-.553 0-1-.447-1-1v-35.018c0-.553.447-1 1-1s1 .447 1 1v35.018c0 .552-.447 1-1 1z"/><path d="m61.998 35.994c-.553 0-1-.447-1-1v-18c0-.553.447-1 1-1s1 .447 1 1v18c0 .553-.447 1-1 1z"/><path d="m49.998 35.994c-.553 0-1-.447-1-1v-18c0-.553.447-1 1-1s1 .447 1 1v18c0 .553-.447 1-1 1z"/><path d="m55.998 22.998c-.256 0-.512-.098-.707-.293-.391-.391-.391-1.024 0-1.414l2.904-2.902c.391-.391 1.023-.391 1.414 0s.391 1.024 0 1.414l-2.904 2.902c-.195.195-.451.293-.707.293z"/><path d="m55.998 22.998c-.256 0-.512-.098-.707-.293l-3-3c-.391-.391-.391-1.023 0-1.414s1.023-.391 1.414 0l3 3c.391.391.391 1.023 0 1.414-.195.195-.451.293-.707.293z"/><path d="m55.998 29.998c-.256 0-.512-.098-.707-.293-.391-.391-.391-1.024 0-1.414l2.904-2.902c.391-.391 1.023-.391 1.414 0s.391 1.024 0 1.414l-2.904 2.902c-.195.195-.451.293-.707.293z"/><path d="m55.998 29.998c-.256 0-.512-.098-.707-.293l-3-3c-.391-.391-.391-1.023 0-1.414s1.023-.391 1.414 0l3 3c.391.391.391 1.023 0 1.414-.195.195-.451.293-.707.293z"/><path d="m55.998 36.998c-.256 0-.512-.098-.707-.293-.391-.391-.391-1.024 0-1.414l2.904-2.902c.391-.391 1.023-.391 1.414 0s.391 1.024 0 1.414l-2.904 2.902c-.195.195-.451.293-.707.293z"/><path d="m55.998 36.998c-.256 0-.512-.098-.707-.293l-3-3c-.391-.391-.391-1.023 0-1.414s1.023-.391 1.414 0l3 3c.391.391.391 1.023 0 1.414-.195.195-.451.293-.707.293z"/></g></svg>