<svg enable-background="new 0 0 64 64" viewBox="0 0 64 80" xmlns="http://www.w3.org/2000/svg"><g fill="#289bd7"><path d="m38.001 50c-.553 0-1-.447-1-1 0-2.757-2.243-5-5-5s-5 2.243-5 5c0 .553-.447 1-1 1s-1-.447-1-1c0-3.859 3.141-7 7-7s7 3.141 7 7c0 .553-.447 1-1 1z"/><path d="m25.999 64c-.553 0-1-.447-1-1v-14c0-.553.447-1 1-1s1 .447 1 1v14c0 .553-.447 1-1 1z"/><path d="m37.999 64c-.553 0-1-.447-1-1v-14c0-.553.447-1 1-1s1 .447 1 1v14c0 .553-.447 1-1 1z"/><path d="m42.001 60.999h-24.009c-.553 0-1-.447-1-1s.447-1 1-1h24.009c.553 0 1 .447 1 1s-.447 1-1 1z"/><path d="m37.999 64h-12c-.553 0-1-.447-1-1s.447-1 1-1h12c.553 0 1 .447 1 1s-.447 1-1 1z"/><path d="m44.001 63c-1.654 0-3-1.346-3-3s1.346-3 3-3 3 1.346 3 3-1.346 3-3 3zm0-4c-.552 0-1 .448-1 1s.448 1 1 1 1-.448 1-1-.448-1-1-1z"/><path d="m19.997 62.001c-.553 0-1-.447-1-1v-2c0-.553.447-1 1-1s1 .447 1 1v2c0 .553-.447 1-1 1z"/><path d="m32 14c-3.859 0-7-3.141-7-7s3.141-7 7-7 7 3.141 7 7-3.141 7-7 7zm0-12c-2.757 0-5 2.243-5 5s2.243 5 5 5 5-2.243 5-5-2.243-5-5-5z"/><path d="m32 10c-1.654 0-3-1.346-3-3s1.346-3 3-3 3 1.346 3 3-1.346 3-3 3zm0-4c-.552 0-1 .448-1 1s.448 1 1 1 1-.448 1-1-.448-1-1-1z"/><path d="m32 10c-1.654 0-3-1.346-3-3s1.346-3 3-3 3 1.346 3 3-1.346 3-3 3zm0-4c-.552 0-1 .448-1 1s.448 1 1 1 1-.448 1-1-.448-1-1-1z"/><path d="m37.998 54.62c-.496 0-.927-.369-.991-.874-.069-.548.318-1.048.866-1.118 7.346-.936 14.439-3.683 20.514-7.944.453-.319 1.076-.207 1.393.244.317.452.208 1.075-.244 1.393-6.339 4.448-13.742 7.315-21.41 8.292-.044.004-.086.007-.128.007z"/><path d="m26.001 54.621c-.042 0-.085-.003-.128-.008-7.664-.978-15.065-3.844-21.403-8.289-.452-.316-.562-.94-.244-1.393.316-.451.939-.563 1.393-.244 6.073 4.259 13.165 7.006 20.509 7.941.548.07.935.571.865 1.119-.065.506-.496.874-.992.874z"/><path d="m26.001 57.644c-.039 0-.079-.002-.12-.007-8.287-.991-16.287-4.055-23.135-8.859-.452-.317-.562-.94-.244-1.393.316-.451.939-.563 1.393-.244 6.578 4.615 14.263 7.558 22.225 8.51.548.065.939.563.874 1.112-.061.508-.494.881-.993.881z"/><path d="m37.998 57.644c-.5 0-.932-.373-.992-.881-.065-.549.326-1.047.874-1.112 7.963-.952 15.648-3.895 22.226-8.51.453-.319 1.075-.207 1.393.244.317.452.208 1.075-.244 1.393-6.846 4.805-14.847 7.868-23.136 8.859-.042.005-.082.007-.121.007z"/><path d="m26.017 49.576c-.047 0-.095-.003-.143-.01-6.63-.947-13.04-3.486-18.537-7.343-.452-.317-.562-.94-.244-1.393.316-.451.94-.563 1.393-.244 5.24 3.676 11.352 6.097 17.672 6.999.547.078.927.585.849 1.132-.072.5-.5.859-.99.859z"/><path d="m37.985 49.576c-.49 0-.918-.359-.989-.858-.078-.547.302-1.054.849-1.132 6.319-.902 12.431-3.323 17.672-7.001.453-.318 1.076-.208 1.393.244s.208 1.075-.244 1.393c-5.497 3.858-11.907 6.397-18.537 7.345-.049.006-.097.009-.144.009z"/><path d="m28.001 45.527c-.553 0-1-.447-1-1v-31.819c0-.553.447-1 1-1s1 .447 1 1v31.819c0 .553-.447 1-1 1z"/><path d="m36 19.999c-.553 0-1-.447-1-1v-6.291c0-.553.447-1 1-1s1 .447 1 1v6.291c0 .553-.447 1-1 1z"/><path d="m36 45.598c-.553 0-1-.447-1-1v-19.599c0-.553.447-1 1-1s1 .447 1 1v19.599c0 .552-.447 1-1 1z"/><path d="m32 57.002c-2.206 0-4-1.794-4-4s1.794-4 4-4 4 1.794 4 4-1.794 4-4 4zm0-6c-1.103 0-2 .897-2 2s.897 2 2 2 2-.897 2-2-.897-2-2-2z"/><path d="m44.939 56.296c-.441 0-.846-.294-.965-.741l-.774-2.891c-.143-.533.174-1.082.707-1.225.533-.144 1.082.173 1.225.707l.774 2.891c.143.533-.174 1.082-.707 1.225-.087.023-.174.034-.26.034z"/><path d="m53.132 53.315c-.377 0-.737-.214-.907-.577l-1.265-2.712c-.233-.501-.017-1.096.483-1.329.501-.232 1.096-.017 1.329.483l1.265 2.712c.233.501.017 1.096-.483 1.329-.137.064-.281.094-.422.094z"/><path d="m60.681 48.957c-.315 0-.626-.148-.82-.427l-16.073-22.954c-.316-.452-.207-1.075.246-1.393.45-.316 1.077-.207 1.393.246l16.072 22.954c.316.452.207 1.075-.246 1.393-.174.122-.374.181-.572.181z"/><path d="m40.405 19.999c-.315 0-.626-.148-.82-.427l-4.961-7.086c-.316-.452-.207-1.075.246-1.393.45-.316 1.076-.207 1.393.246l4.961 7.086c.316.452.207 1.075-.246 1.393-.174.122-.374.181-.573.181z"/><path d="m53.332 44.181c-.315 0-.626-.148-.82-.427l-12.73-18.181c-.316-.452-.207-1.075.246-1.393.45-.316 1.076-.208 1.393.246l12.729 18.181c.316.452.207 1.075-.246 1.393-.174.122-.374.181-.572.181z"/><path d="m3.381 48.957c-.198 0-.398-.059-.572-.181-.453-.317-.563-.94-.246-1.393l25.236-36.043c.316-.453.941-.563 1.393-.246.453.317.563.94.246 1.393l-25.237 36.043c-.194.279-.505.427-.82.427z"/><path d="m10.729 44.181c-.198 0-.398-.059-.572-.181-.453-.317-.563-.94-.246-1.393l17.27-24.665c.316-.453.942-.562 1.393-.246.453.317.563.94.246 1.393l-17.27 24.665c-.195.278-.505.427-.821.427z"/><path d="m10.874 53.31c-.142 0-.285-.03-.422-.094-.5-.233-.717-.828-.483-1.329l1.26-2.702c.233-.499.829-.715 1.329-.483.5.233.717.828.483 1.329l-1.26 2.702c-.17.363-.53.577-.907.577z"/><path d="m19.065 56.291c-.086 0-.173-.011-.26-.034-.533-.143-.85-.691-.707-1.225l.771-2.881c.143-.532.692-.849 1.225-.707.533.143.85.691.707 1.225l-.771 2.881c-.119.446-.523.741-.965.741z"/><path d="m54.001 19.999h-21.016c-.553 0-1-.447-1-1s.447-1 1-1h21.016c.553 0 1 .447 1 1s-.447 1-1 1z"/><path d="m54.001 25.999h-21.016c-.553 0-1-.447-1-1s.447-1 1-1h21.016c.553 0 1 .447 1 1s-.447 1-1 1z"/><path d="m53.999 26c-1.683 0-3-1.758-3-4.001s1.317-4 3-4 3.001 1.757 3.001 4-1.318 4.001-3.001 4.001zm0-6.001c-.398 0-1 .798-1 2 0 1.222.592 2.001 1 2.001s1.001-.779 1.001-2.001c0-1.221-.593-2-1.001-2z"/><path d="m33.001 26c-1.683 0-3-1.758-3-4.001s1.317-4 3-4c.553 0 1 .447 1 1s-.447 1-1 1c-.398 0-1 .798-1 2 0 1.222.592 2.001 1 2.001.553 0 1 .447 1 1s-.447 1-1 1z"/><path d="m49.005 26c-1.683 0-3-1.758-3-4.001s1.317-4 3-4c.553 0 1 .447 1 1s-.447 1-1 1c-.398 0-1 .798-1 2 0 1.222.592 2.001 1 2.001.553 0 1 .447 1 1s-.447 1-1 1z"/><path d="m25.057 17.999h-5.054c-.553 0-1-.447-1-1s.447-1 1-1h5.054c.553 0 1 .447 1 1s-.448 1-1 1z"/><path d="m15.003 23c-3.309 0-6-2.691-6-6s2.691-6 6-6 6 2.691 6 6-2.691 6-6 6zm0-10c-2.206 0-4 1.794-4 4s1.794 4 4 4 4-1.794 4-4-1.794-4-4-4z"/><path d="m16.249 30.007h-4.25c-.553 0-1-.447-1-1s.447-1 1-1h4.25c.553 0 1 .447 1 1s-.447 1-1 1z"/><path d="m8 34.007c-2.757 0-4.999-2.242-4.999-4.999s2.242-4.999 4.999-4.999 4.999 2.242 4.999 4.999-2.242 4.999-4.999 4.999zm0-7.998c-1.653 0-2.999 1.346-2.999 2.999s1.346 2.999 2.999 2.999 2.999-1.346 2.999-2.999-1.346-2.999-2.999-2.999z"/></g></svg>