<svg enable-background="new 0 0 64 64" viewBox="0 0 64 80" xmlns="http://www.w3.org/2000/svg"><g fill="#289bd7"><path d="m62 50.993c-.256 0-.512-.098-.707-.293-.391-.391-.391-1.023 0-1.414l1-1c.391-.391 1.023-.391 1.414 0s.391 1.023 0 1.414l-1 1c-.195.196-.451.293-.707.293z"/><path d="m62 50.993c-.256 0-.512-.098-.707-.293l-2-2c-.391-.391-.391-1.023 0-1.414s1.023-.391 1.414 0l2 2c.391.391.391 1.023 0 1.414-.195.196-.451.293-.707.293z"/><path d="m58 50.993c-.256 0-.512-.098-.707-.293-.391-.391-.391-1.023 0-1.414l2-2c.391-.391 1.023-.391 1.414 0s.391 1.023 0 1.414l-2 2c-.195.196-.451.293-.707.293z"/><path d="m58 50.993c-.256 0-.512-.098-.707-.293l-2-2c-.391-.391-.391-1.023 0-1.414s1.023-.391 1.414 0l2 2c.391.391.391 1.023 0 1.414-.195.196-.451.293-.707.293z"/><path d="m54 50.993c-.256 0-.512-.098-.707-.293-.391-.391-.391-1.023 0-1.414l2-2c.391-.391 1.023-.391 1.414 0s.391 1.023 0 1.414l-2 2c-.195.196-.451.293-.707.293z"/><path d="m54 50.993c-.256 0-.512-.098-.707-.293l-2-2c-.391-.391-.391-1.023 0-1.414s1.023-.391 1.414 0l2 2c.391.391.391 1.023 0 1.414-.195.196-.451.293-.707.293z"/><path d="m50 50.993c-.256 0-.512-.098-.707-.293l-2-2c-.391-.391-.391-1.023 0-1.414s1.023-.391 1.414 0l2 2c.391.391.391 1.023 0 1.414-.195.196-.451.293-.707.293z"/><path d="m46 50.993c-.256 0-.512-.098-.707-.293-.391-.391-.391-1.023 0-1.414l2-2c.391-.391 1.023-.391 1.414 0s.391 1.023 0 1.414l-2 2c-.195.196-.451.293-.707.293z"/><path d="m50.016 50.993c-.256 0-.512-.098-.707-.293-.391-.391-.391-1.023 0-1.414l2-2c.391-.391 1.023-.391 1.414 0s.391 1.023 0 1.414l-2 2c-.196.196-.452.293-.707.293z"/><path d="m46 50.993c-.256 0-.512-.098-.707-.293l-2-2c-.391-.391-.391-1.023 0-1.414s1.023-.391 1.414 0l2 2c.391.391.391 1.023 0 1.414-.195.196-.451.293-.707.293z"/><path d="m42 50.993c-.256 0-.512-.098-.707-.293-.391-.391-.391-1.023 0-1.414l2-2c.391-.391 1.023-.391 1.414 0s.391 1.023 0 1.414l-2 2c-.195.196-.451.293-.707.293z"/><path d="m42 50.993c-.256 0-.512-.098-.707-.293l-2-2c-.391-.391-.391-1.023 0-1.414s1.023-.391 1.414 0l2 2c.391.391.391 1.023 0 1.414-.195.196-.451.293-.707.293z"/><path d="m37.996 50.996c-.257 0-.513-.098-.708-.294-.39-.391-.39-1.024.002-1.414l8.002-7.982c.392-.39 1.023-.39 1.414.002.39.391.39 1.024-.002 1.414l-8.002 7.982c-.195.194-.45.292-.706.292z"/><path d="m38 50.993c-.256 0-.512-.098-.707-.293l-2-2c-.391-.391-.391-1.023 0-1.414s1.023-.391 1.414 0l2 2c.391.391.391 1.023 0 1.414-.195.196-.451.293-.707.293z"/><path d="m34 50.993c-.256 0-.512-.098-.707-.293-.391-.391-.391-1.023 0-1.414l2-2c.391-.391 1.023-.391 1.414 0s.391 1.023 0 1.414l-2 2c-.195.196-.451.293-.707.293z"/><path d="m34 50.993c-.256 0-.512-.098-.707-.293l-2-2c-.391-.391-.391-1.023 0-1.414s1.023-.391 1.414 0l2 2c.391.391.391 1.023 0 1.414-.195.196-.451.293-.707.293z"/><path d="m30 50.993c-.256 0-.512-.098-.707-.293-.391-.391-.391-1.023 0-1.414l2-2c.391-.391 1.023-.391 1.414 0s.391 1.023 0 1.414l-2 2c-.195.196-.451.293-.707.293z"/><path d="m30 50.993c-.256 0-.512-.098-.707-.293l-2-2c-.391-.391-.391-1.023 0-1.414s1.023-.391 1.414 0l2 2c.391.391.391 1.023 0 1.414-.195.196-.451.293-.707.293z"/><path d="m26 50.993c-.256 0-.512-.098-.707-.293-.391-.391-.391-1.023 0-1.414l2-2c.391-.391 1.023-.391 1.414 0s.391 1.023 0 1.414l-2 2c-.195.196-.451.293-.707.293z"/><path d="m25.996 50.996c-.256 0-.512-.098-.707-.293l-7.985-7.985c-.391-.391-.391-1.023 0-1.414s1.023-.391 1.414 0l7.985 7.985c.391.391.391 1.023 0 1.414-.195.195-.451.293-.707.293z"/><path d="m22 50.993c-.256 0-.512-.098-.707-.293-.391-.391-.391-1.023 0-1.414l2-2c.391-.391 1.023-.391 1.414 0s.391 1.023 0 1.414l-2 2c-.195.196-.451.293-.707.293z"/><path d="m22 50.993c-.256 0-.512-.098-.707-.293l-2-2c-.391-.391-.391-1.023 0-1.414s1.023-.391 1.414 0l2 2c.391.391.391 1.023 0 1.414-.195.196-.451.293-.707.293z"/><path d="m18 50.993c-.256 0-.512-.098-.707-.293-.391-.391-.391-1.023 0-1.414l2-2c.391-.391 1.023-.391 1.414 0s.391 1.023 0 1.414l-2 2c-.195.196-.451.293-.707.293z"/><path d="m18 50.993c-.256 0-.512-.098-.707-.293l-2-2c-.391-.391-.391-1.023 0-1.414s1.023-.391 1.414 0l2 2c.391.391.391 1.023 0 1.414-.195.196-.451.293-.707.293z"/><path d="m14 50.993c-.256 0-.512-.098-.707-.293-.391-.391-.391-1.023 0-1.414l2-2c.391-.391 1.023-.391 1.414 0s.391 1.023 0 1.414l-2 2c-.195.196-.451.293-.707.293z"/><path d="m14 50.993c-.256 0-.512-.098-.707-.293l-2-2c-.391-.391-.391-1.023 0-1.414s1.023-.391 1.414 0l2 2c.391.391.391 1.023 0 1.414-.195.196-.451.293-.707.293z"/><path d="m10 50.993c-.256 0-.512-.098-.707-.293-.391-.391-.391-1.023 0-1.414l2-2c.391-.391 1.023-.391 1.414 0s.391 1.023 0 1.414l-2 2c-.195.196-.451.293-.707.293z"/><path d="m10 50.993c-.256 0-.512-.098-.707-.293l-2-2c-.391-.391-.391-1.023 0-1.414s1.023-.391 1.414 0l2 2c.391.391.391 1.023 0 1.414-.195.196-.451.293-.707.293z"/><path d="m6 50.993c-.256 0-.512-.098-.707-.293-.391-.391-.391-1.023 0-1.414l2-2c.391-.391 1.023-.391 1.414 0s.391 1.023 0 1.414l-2 2c-.195.196-.451.293-.707.293z"/><path d="m6 50.993c-.256 0-.512-.098-.707-.293l-2-2c-.391-.391-.391-1.023 0-1.414s1.023-.391 1.414 0l2 2c.391.391.391 1.023 0 1.414-.195.196-.451.293-.707.293z"/><path d="m2 50.993c-.256 0-.512-.098-.707-.293-.391-.391-.391-1.023 0-1.414l2-2c.391-.391 1.023-.391 1.414 0s.391 1.023 0 1.414l-2 2c-.195.196-.451.293-.707.293z"/><path d="m2 50.993c-.256 0-.512-.098-.707-.293l-1-1c-.391-.391-.391-1.023 0-1.414s1.023-.391 1.414 0l1 1c.391.391.391 1.023 0 1.414-.195.196-.451.293-.707.293z"/><path d="m32 58.992c-.256 0-.512-.098-.707-.293l-2-2c-.391-.391-.391-1.023 0-1.414s1.023-.391 1.414 0l2 2c.391.391.391 1.023 0 1.414-.195.196-.451.293-.707.293z"/><path d="m28 58.992c-.256 0-.512-.098-.707-.293-.391-.391-.391-1.023 0-1.414l2-2c.391-.391 1.023-.391 1.414 0s.391 1.023 0 1.414l-2 2c-.195.196-.451.293-.707.293z"/><path d="m28 58.992c-.256 0-.512-.098-.707-.293l-2-2c-.391-.391-.391-1.023 0-1.414s1.023-.391 1.414 0l2 2c.391.391.391 1.023 0 1.414-.195.196-.451.293-.707.293z"/><path d="m24 58.992c-.256 0-.512-.098-.707-.293-.391-.391-.391-1.023 0-1.414l2-2c.391-.391 1.023-.391 1.414 0s.391 1.023 0 1.414l-2 2c-.195.196-.451.293-.707.293z"/><path d="m24 58.992c-.256 0-.512-.098-.707-.293l-2-2c-.391-.391-.391-1.023 0-1.414s1.023-.391 1.414 0l2 2c.391.391.391 1.023 0 1.414-.195.196-.451.293-.707.293z"/><path d="m20 58.992c-.256 0-.512-.098-.707-.293-.391-.391-.391-1.023 0-1.414l2-2c.391-.391 1.023-.391 1.414 0s.391 1.023 0 1.414l-2 2c-.195.196-.451.293-.707.293z"/><path d="m20 58.992c-.256 0-.512-.098-.707-.293l-2-2c-.391-.391-.391-1.023 0-1.414s1.023-.391 1.414 0l2 2c.391.391.391 1.023 0 1.414-.195.196-.451.293-.707.293z"/><path d="m16 58.992c-.256 0-.512-.098-.707-.293-.391-.391-.391-1.023 0-1.414l2-2c.391-.391 1.023-.391 1.414 0s.391 1.023 0 1.414l-2 2c-.195.196-.451.293-.707.293z"/><path d="m16 58.992c-.256 0-.512-.098-.707-.293l-2-2c-.391-.391-.391-1.023 0-1.414s1.023-.391 1.414 0l2 2c.391.391.391 1.023 0 1.414-.195.196-.451.293-.707.293z"/><path d="m12 58.992c-.256 0-.512-.098-.707-.293-.391-.391-.391-1.023 0-1.414l2-2c.391-.391 1.023-.391 1.414 0s.391 1.023 0 1.414l-2 2c-.195.196-.451.293-.707.293z"/><path d="m52 63.991c-.256 0-.512-.098-.707-.293l-2-2c-.391-.391-.391-1.023 0-1.414s1.023-.391 1.414 0l2 2c.391.391.391 1.023 0 1.414-.195.196-.451.293-.707.293z"/><path d="m48 63.991c-.256 0-.512-.098-.707-.293-.391-.391-.391-1.023 0-1.414l2-2c.391-.391 1.023-.391 1.414 0s.391 1.023 0 1.414l-2 2c-.195.196-.451.293-.707.293z"/><path d="m48 63.991c-.256 0-.512-.098-.707-.293l-2-2c-.391-.391-.391-1.023 0-1.414s1.023-.391 1.414 0l2 2c.391.391.391 1.023 0 1.414-.195.196-.451.293-.707.293z"/><path d="m44 63.991c-.256 0-.512-.098-.707-.293-.391-.391-.391-1.023 0-1.414l2-2c.391-.391 1.023-.391 1.414 0s.391 1.023 0 1.414l-2 2c-.195.196-.451.293-.707.293z"/><path d="m44 63.991c-.256 0-.512-.098-.707-.293l-2-2c-.391-.391-.391-1.023 0-1.414s1.023-.391 1.414 0l2 2c.391.391.391 1.023 0 1.414-.195.196-.451.293-.707.293z"/><path d="m40 63.991c-.256 0-.512-.098-.707-.293-.391-.391-.391-1.023 0-1.414l2-2c.391-.391 1.023-.391 1.414 0s.391 1.023 0 1.414l-2 2c-.195.196-.451.293-.707.293z"/><path d="m32 48.993c-.553 0-1-.447-1-1v-17.978c0-.553.447-1 1-1s1 .447 1 1v17.979c0 .552-.447.999-1 .999z"/><path d="m45.998 43.014c-.553 0-1-.447-1-1v-6.001c0-.553.447-1 1-1s1 .447 1 1v6.001c0 .552-.447 1-1 1z"/><path d="m18.011 43.011c-.553 0-1-.447-1-1v-5.999c0-.553.447-1 1-1s1 .447 1 1v5.999c0 .552-.448 1-1 1z"/><path d="m18.01 40.011c-.435 0-.835-.286-.961-.726-.151-.53.156-1.084.688-1.236l13.989-3.999c.526-.146 1.084.155 1.236.688.151.53-.156 1.084-.688 1.236l-13.989 3.999c-.092.025-.183.038-.275.038z"/><path d="m45.999 40.012c-.092 0-.184-.013-.275-.038l-13.998-4c-.531-.152-.839-.706-.688-1.236.152-.532.709-.834 1.236-.688l13.998 4c.531.152.839.706.688 1.236-.126.44-.526.726-.961.726z"/><path d="m18.011 37.012c-.436 0-.836-.286-.962-.726-.151-.53.156-1.084.688-1.236l13.989-3.999c.526-.146 1.084.155 1.236.688.151.53-.156 1.084-.688 1.236l-13.989 3.999c-.092.025-.183.038-.274.038z"/><path d="m45.999 37.013c-.092 0-.184-.013-.275-.038l-13.998-4c-.531-.152-.839-.706-.688-1.236.152-.532.709-.834 1.236-.688l13.998 4c.531.152.839.706.688 1.236-.126.44-.526.726-.961.726z"/><path d="m46.001 31.012h-28.001c-.553 0-1-.447-1-1s.447-1 1-1h28.001c.553 0 1 .447 1 1s-.447 1-1 1z"/><path d="m18 31.013c-1.654 0-3-1.346-3-3 0-.553.447-1 1-1s1 .447 1 1c0 .552.448 1 1 1 .553 0 1 .447 1 1s-.447 1-1 1z"/><path d="m46.001 31.013c-.553 0-1-.447-1-1s.447-1 1-1c.552 0 1-.448 1-1 0-.553.447-1 1-1s1 .447 1 1c0 1.654-1.346 3-3 3z"/><path d="m43.999 16.011h-23.997c-.553 0-1-.447-1-1s.447-1 1-1h23.997c.553 0 1 .447 1 1s-.447 1-1 1z"/><path d="m45.998 18.01c-.475 0-.896-.338-.983-.821-.214-1.179-.796-1.179-1.016-1.179-.553 0-1-.447-1-1s.447-1 1-1c1.548 0 2.663 1.055 2.984 2.821.099.544-.263 1.064-.806 1.163-.06.011-.12.016-.179.016z"/><path d="m48 29.013c-.475 0-.895-.338-.982-.821l-2.002-11.003c-.1-.543.261-1.063.805-1.162.541-.106 1.063.261 1.162.805l2.002 11.003c.1.543-.261 1.063-.805 1.162-.061.011-.12.016-.18.016z"/><path d="m18 18.01c-.06 0-.119-.005-.18-.016-.543-.099-.904-.619-.806-1.163.321-1.767 1.437-2.821 2.984-2.821.553 0 1 .447 1 1s-.447 1-1 1c-.22 0-.802 0-1.016 1.179-.086.482-.507.821-.982.821z"/><path d="m15.998 29.013c-.06 0-.119-.005-.18-.017-.544-.099-.904-.619-.805-1.162l2.002-11.003c.098-.544.621-.907 1.162-.805.544.099.904.619.805 1.162l-2.002 11.003c-.086.484-.507.822-.982.822z"/><path d="m38.994 16.013h-13.987c-.553 0-1-.447-1-1s.447-1 1-1h13.987c.553 0 1 .447 1 1s-.447 1-1 1z"/><path d="m37.993 9.001h-11.985c-.553 0-1-.447-1-1s.447-1 1-1h11.985c.553 0 1 .447 1 1s-.447 1-1 1z"/><path d="m39.992 11c-.467 0-.885-.328-.979-.804-.24-1.196-.709-1.196-1.02-1.196-.553 0-1-.447-1-1s.447-1 1-1c.903 0 2.492.364 2.98 2.804.108.542-.242 1.068-.784 1.177-.066.013-.131.019-.197.019z"/><path d="m40.993 16.016c-.467 0-.885-.329-.979-.805l-1.001-5.016c-.108-.541.243-1.068.785-1.176.541-.113 1.067.244 1.176.785l1.001 5.016c.108.541-.243 1.068-.785 1.176-.066.014-.132.02-.197.02z"/><path d="m24.007 11c-.065 0-.131-.006-.197-.02-.542-.108-.893-.635-.784-1.177.488-2.439 2.077-2.803 2.98-2.803.553 0 1 .447 1 1s-.447 1-1 1c-.311 0-.78 0-1.02 1.196-.094.476-.512.804-.979.804z"/><path d="m23.006 16.016c-.064 0-.131-.006-.196-.02-.542-.107-.894-.635-.785-1.176l1.001-5.016c.107-.541.634-.9 1.176-.785.542.107.894.635.785 1.176l-1.001 5.016c-.095.476-.513.805-.98.805z"/><path d="m32 9.009c-.553 0-1-.447-1-1v-7c0-.553.447-1 1-1s1 .447 1 1v7c0 .553-.447 1-1 1z"/><path d="m38 3.01h-6c-.553 0-1-.447-1-1s.447-1 1-1h6c.553 0 1 .447 1 1s-.447 1-1 1z"/><path d="m42.993 5.009h-6c-.553 0-1-.447-1-1s.447-1 1-1h6c.553 0 1 .447 1 1s-.447 1-1 1z"/></g></svg>