<svg enable-background="new 0 0 64 64" viewBox="0 0 64 80" xmlns="http://www.w3.org/2000/svg"><path fill="rgb(40, 155, 215)" d="m62 50.494c-.256 0-.512-.098-.707-.293-.391-.391-.391-1.023 0-1.414l1-1c.391-.391 1.023-.391 1.414 0s.391 1.023 0 1.414l-1 1c-.195.195-.451.293-.707.293z"/><path fill="rgb(40, 155, 215)" d="m62 50.494c-.256 0-.512-.098-.707-.293l-2-2c-.391-.391-.391-1.023 0-1.414s1.023-.391 1.414 0l2 2c.391.391.391 1.023 0 1.414-.195.195-.451.293-.707.293z"/><path fill="rgb(40, 155, 215)" d="m58 50.494c-.256 0-.512-.098-.707-.293-.391-.391-.391-1.023 0-1.414l2-2c.391-.391 1.023-.391 1.414 0s.391 1.023 0 1.414l-2 2c-.195.195-.451.293-.707.293z"/><path fill="rgb(40, 155, 215)" d="m58 50.494c-.256 0-.512-.098-.707-.293l-2-2c-.391-.391-.391-1.023 0-1.414s1.023-.391 1.414 0l2 2c.391.391.391 1.023 0 1.414-.195.195-.451.293-.707.293z"/><path fill="rgb(40, 155, 215)" d="m54 50.494c-.256 0-.512-.098-.707-.293-.391-.391-.391-1.023 0-1.414l2-2c.391-.391 1.023-.391 1.414 0s.391 1.023 0 1.414l-2 2c-.195.195-.451.293-.707.293z"/><path fill="rgb(40, 155, 215)" d="m54 50.494c-.256 0-.512-.098-.707-.293l-2-2c-.391-.391-.391-1.023 0-1.414s1.023-.391 1.414 0l2 2c.391.391.391 1.023 0 1.414-.195.195-.451.293-.707.293z"/><path fill="rgb(40, 155, 215)" d="m50 50.494c-.256 0-.512-.098-.707-.293l-2-2c-.391-.391-.391-1.023 0-1.414s1.023-.391 1.414 0l2 2c.391.391.391 1.023 0 1.414-.195.195-.451.293-.707.293z"/><path fill="rgb(40, 155, 215)" d="m46 50.494c-.256 0-.512-.098-.707-.293-.391-.391-.391-1.023 0-1.414l2-2c.391-.391 1.023-.391 1.414 0s.391 1.023 0 1.414l-2 2c-.195.195-.451.293-.707.293z"/><path fill="rgb(40, 155, 215)" d="m46 50.494c-.256 0-.512-.098-.707-.293l-2-2c-.391-.391-.391-1.023 0-1.414s1.023-.391 1.414 0l2 2c.391.391.391 1.023 0 1.414-.195.195-.451.293-.707.293z"/><path fill="rgb(40, 155, 215)" d="m42 50.494c-.256 0-.512-.098-.707-.293-.391-.391-.391-1.023 0-1.414l2-2c.391-.391 1.023-.391 1.414 0s.391 1.023 0 1.414l-2 2c-.195.195-.451.293-.707.293z"/><path fill="rgb(40, 155, 215)" d="m42 50.494c-.256 0-.512-.098-.707-.293l-2-2c-.391-.391-.391-1.023 0-1.414s1.023-.391 1.414 0l2 2c.391.391.391 1.023 0 1.414-.195.195-.451.293-.707.293z"/><path fill="rgb(40, 155, 215)" d="m38 50.494c-.256 0-.512-.098-.707-.293-.391-.391-.391-1.023 0-1.414l2-2c.391-.391 1.023-.391 1.414 0s.391 1.023 0 1.414l-2 2c-.195.195-.451.293-.707.293z"/><path fill="rgb(40, 155, 215)" d="m38 50.494c-.256 0-.512-.098-.707-.293l-2-2c-.391-.391-.391-1.023 0-1.414s1.023-.391 1.414 0l2 2c.391.391.391 1.023 0 1.414-.195.195-.451.293-.707.293z"/><path fill="rgb(40, 155, 215)" d="m34 50.494c-.256 0-.512-.098-.707-.293-.391-.391-.391-1.023 0-1.414l2-2c.391-.391 1.023-.391 1.414 0s.391 1.023 0 1.414l-2 2c-.195.195-.451.293-.707.293z"/><path fill="rgb(40, 155, 215)" d="m34 50.494c-.256 0-.512-.098-.707-.293l-2-2c-.391-.391-.391-1.023 0-1.414s1.023-.391 1.414 0l2 2c.391.391.391 1.023 0 1.414-.195.195-.451.293-.707.293z"/><path fill="rgb(40, 155, 215)" d="m30 50.494c-.256 0-.512-.098-.707-.293-.391-.391-.391-1.023 0-1.414l2-2c.391-.391 1.023-.391 1.414 0s.391 1.023 0 1.414l-2 2c-.195.195-.451.293-.707.293z"/><path fill="rgb(40, 155, 215)" d="m30 50.494c-.256 0-.512-.098-.707-.293l-2-2c-.391-.391-.391-1.023 0-1.414s1.023-.391 1.414 0l2 2c.391.391.391 1.023 0 1.414-.195.195-.451.293-.707.293z"/><path fill="rgb(40, 155, 215)" d="m26 50.494c-.256 0-.512-.098-.707-.293-.391-.391-.391-1.023 0-1.414l2-2c.391-.391 1.023-.391 1.414 0s.391 1.023 0 1.414l-2 2c-.195.195-.451.293-.707.293z"/><path fill="rgb(40, 155, 215)" d="m26 50.494c-.256 0-.512-.098-.707-.293l-2-2c-.391-.391-.391-1.023 0-1.414s1.023-.391 1.414 0l2 2c.391.391.391 1.023 0 1.414-.195.195-.451.293-.707.293z"/><path fill="rgb(40, 155, 215)" d="m22 50.494c-.256 0-.512-.098-.707-.293-.391-.391-.391-1.023 0-1.414l2-2c.391-.391 1.023-.391 1.414 0s.391 1.023 0 1.414l-2 2c-.195.195-.451.293-.707.293z"/><path fill="rgb(40, 155, 215)" d="m22 50.494c-.256 0-.512-.098-.707-.293l-2-2c-.391-.391-.391-1.023 0-1.414s1.023-.391 1.414 0l2 2c.391.391.391 1.023 0 1.414-.195.195-.451.293-.707.293z"/><path fill="rgb(40, 155, 215)" d="m18 50.494c-.256 0-.512-.098-.707-.293-.391-.391-.391-1.023 0-1.414l2-2c.391-.391 1.023-.391 1.414 0s.391 1.023 0 1.414l-2 2c-.195.195-.451.293-.707.293z"/><path fill="rgb(40, 155, 215)" d="m18 50.494c-.256 0-.512-.098-.707-.293l-2-2c-.391-.391-.391-1.023 0-1.414s1.023-.391 1.414 0l2 2c.391.391.391 1.023 0 1.414-.195.195-.451.293-.707.293z"/><path fill="rgb(40, 155, 215)" d="m14 50.494c-.256 0-.512-.098-.707-.293-.391-.391-.391-1.023 0-1.414l2-2c.391-.391 1.023-.391 1.414 0s.391 1.023 0 1.414l-2 2c-.195.195-.451.293-.707.293z"/><path fill="rgb(40, 155, 215)" d="m14 50.494c-.256 0-.512-.098-.707-.293l-2-2c-.391-.391-.391-1.023 0-1.414s1.023-.391 1.414 0l2 2c.391.391.391 1.023 0 1.414-.195.195-.451.293-.707.293z"/><path fill="rgb(40, 155, 215)" d="m10 50.494c-.256 0-.512-.098-.707-.293-.391-.391-.391-1.023 0-1.414l2-2c.391-.391 1.023-.391 1.414 0s.391 1.023 0 1.414l-2 2c-.195.195-.451.293-.707.293z"/><path fill="rgb(40, 155, 215)" d="m10 50.494c-.256 0-.512-.098-.707-.293l-2-2c-.391-.391-.391-1.023 0-1.414s1.023-.391 1.414 0l2 2c.391.391.391 1.023 0 1.414-.195.195-.451.293-.707.293z"/><path fill="rgb(40, 155, 215)" d="m6 50.494c-.256 0-.512-.098-.707-.293-.391-.391-.391-1.023 0-1.414l2-2c.391-.391 1.023-.391 1.414 0s.391 1.023 0 1.414l-2 2c-.195.195-.451.293-.707.293z"/><path fill="rgb(40, 155, 215)" d="m6 50.494c-.256 0-.512-.098-.707-.293l-2-2c-.391-.391-.391-1.023 0-1.414s1.023-.391 1.414 0l2 2c.391.391.391 1.023 0 1.414-.195.195-.451.293-.707.293z"/><path fill="rgb(40, 155, 215)" d="m2 50.494c-.256 0-.512-.098-.707-.293-.391-.391-.391-1.023 0-1.414l2-2c.391-.391 1.023-.391 1.414 0s.391 1.023 0 1.414l-2 2c-.195.195-.451.293-.707.293z"/><path fill="rgb(40, 155, 215)" d="m2 50.494c-.256 0-.512-.098-.707-.293l-1-1c-.391-.391-.391-1.023 0-1.414s1.023-.391 1.414 0l1 1c.391.391.391 1.023 0 1.414-.195.195-.451.293-.707.293z"/><path fill="rgb(40, 155, 215)" d="m32 58.492c-.256 0-.512-.098-.707-.293l-2-2c-.391-.391-.391-1.023 0-1.414s1.023-.391 1.414 0l2 2c.391.391.391 1.023 0 1.414-.195.196-.451.293-.707.293z"/><path fill="rgb(40, 155, 215)" d="m28 58.492c-.256 0-.512-.098-.707-.293-.391-.391-.391-1.023 0-1.414l2-2c.391-.391 1.023-.391 1.414 0s.391 1.023 0 1.414l-2 2c-.195.196-.451.293-.707.293z"/><path fill="rgb(40, 155, 215)" d="m28 58.492c-.256 0-.512-.098-.707-.293l-2-2c-.391-.391-.391-1.023 0-1.414s1.023-.391 1.414 0l2 2c.391.391.391 1.023 0 1.414-.195.196-.451.293-.707.293z"/><path fill="rgb(40, 155, 215)" d="m24 58.492c-.256 0-.512-.098-.707-.293-.391-.391-.391-1.023 0-1.414l2-2c.391-.391 1.023-.391 1.414 0s.391 1.023 0 1.414l-2 2c-.195.196-.451.293-.707.293z"/><path fill="rgb(40, 155, 215)" d="m24 58.492c-.256 0-.512-.098-.707-.293l-2-2c-.391-.391-.391-1.023 0-1.414s1.023-.391 1.414 0l2 2c.391.391.391 1.023 0 1.414-.195.196-.451.293-.707.293z"/><path fill="rgb(40, 155, 215)" d="m20 58.492c-.256 0-.512-.098-.707-.293-.391-.391-.391-1.023 0-1.414l2-2c.391-.391 1.023-.391 1.414 0s.391 1.023 0 1.414l-2 2c-.195.196-.451.293-.707.293z"/><path fill="rgb(40, 155, 215)" d="m20 58.492c-.256 0-.512-.098-.707-.293l-2-2c-.391-.391-.391-1.023 0-1.414s1.023-.391 1.414 0l2 2c.391.391.391 1.023 0 1.414-.195.196-.451.293-.707.293z"/><path fill="rgb(40, 155, 215)" d="m16 58.492c-.256 0-.512-.098-.707-.293-.391-.391-.391-1.023 0-1.414l2-2c.391-.391 1.023-.391 1.414 0s.391 1.023 0 1.414l-2 2c-.195.196-.451.293-.707.293z"/><path fill="rgb(40, 155, 215)" d="m16 58.492c-.256 0-.512-.098-.707-.293l-2-2c-.391-.391-.391-1.023 0-1.414s1.023-.391 1.414 0l2 2c.391.391.391 1.023 0 1.414-.195.196-.451.293-.707.293z"/><path fill="rgb(40, 155, 215)" d="m12 58.492c-.256 0-.512-.098-.707-.293-.391-.391-.391-1.023 0-1.414l2-2c.391-.391 1.023-.391 1.414 0s.391 1.023 0 1.414l-2 2c-.195.196-.451.293-.707.293z"/><path fill="rgb(40, 155, 215)" d="m52 63.492c-.256 0-.512-.098-.707-.293l-2-2c-.391-.391-.391-1.023 0-1.414s1.023-.391 1.414 0l2 2c.391.391.391 1.023 0 1.414-.195.196-.451.293-.707.293z"/><path fill="rgb(40, 155, 215)" d="m48 63.492c-.256 0-.512-.098-.707-.293-.391-.391-.391-1.023 0-1.414l2-2c.391-.391 1.023-.391 1.414 0s.391 1.023 0 1.414l-2 2c-.195.196-.451.293-.707.293z"/><path fill="rgb(40, 155, 215)" d="m48 63.492c-.256 0-.512-.098-.707-.293l-2-2c-.391-.391-.391-1.023 0-1.414s1.023-.391 1.414 0l2 2c.391.391.391 1.023 0 1.414-.195.196-.451.293-.707.293z"/><path fill="rgb(40, 155, 215)" d="m44 63.492c-.256 0-.512-.098-.707-.293-.391-.391-.391-1.023 0-1.414l2-2c.391-.391 1.023-.391 1.414 0s.391 1.023 0 1.414l-2 2c-.195.196-.451.293-.707.293z"/><path fill="rgb(40, 155, 215)" d="m44 63.492c-.256 0-.512-.098-.707-.293l-2-2c-.391-.391-.391-1.023 0-1.414s1.023-.391 1.414 0l2 2c.391.391.391 1.023 0 1.414-.195.196-.451.293-.707.293z"/><path fill="rgb(40, 155, 215)" d="m40 63.492c-.256 0-.512-.098-.707-.293-.391-.391-.391-1.023 0-1.414l2-2c.391-.391 1.023-.391 1.414 0s.391 1.023 0 1.414l-2 2c-.195.196-.451.293-.707.293z"/><path fill="rgb(40, 155, 215)" d="m12 48.494c-.553 0-1-.447-1-1v-4c0-.553.447-1 1-1s1 .447 1 1v4c0 .553-.447 1-1 1z"/><path fill="rgb(40, 155, 215)" d="m49.996 50.496c-.256 0-.512-.098-.707-.293-.391-.391-.391-1.023 0-1.414l6.997-6.996c.391-.391 1.023-.391 1.414 0s.391 1.023 0 1.414l-6.997 6.996c-.195.195-.451.293-.707.293z"/><path fill="rgb(40, 155, 215)" d="m12 44.494h-3.998c-.553 0-1-.447-1-1s.447-1 1-1h3.998c.553 0 1 .447 1 1s-.447 1-1 1z"/><path fill="rgb(40, 155, 215)" d="m8.002 44.494c-.553 0-1-.447-1-1v-10.004c0-.552.447-1 1-1s1 .448 1 1v10.004c0 .553-.447 1-1 1z"/><path fill="rgb(40, 155, 215)" d="m17 34.49h-8.998c-.553 0-1-.447-1-1 0-.552.447-1 1-1h8.998c.553 0 1 .448 1 1 0 .553-.447 1-1 1z"/><path fill="rgb(40, 155, 215)" d="m20.997 40.49c-2.756 0-4.997-2.242-4.997-4.998 0-.553.447-1 1-1s1 .447 1 1c0 1.653 1.345 2.998 2.997 2.998.553 0 1 .447 1 1s-.447 1-1 1z"/><path fill="rgb(40, 155, 215)" d="m56.993 43.5c-.553 0-1-.447-1-1v-9.01c0-.552.447-1 1-1s1 .448 1 1v9.01c0 .553-.447 1-1 1z"/><path fill="rgb(40, 155, 215)" d="m56.993 40.492h-35.996c-.553 0-1-.447-1-1s.447-1 1-1h35.996c.553 0 1 .447 1 1s-.447 1-1 1z"/><path fill="rgb(40, 155, 215)" d="m36.001 39.492c-.553 0-1-.447-1-1v-5.002c0-.552.447-1 1-1s1 .448 1 1v5.002c0 .553-.447 1-1 1z"/><path fill="rgb(40, 155, 215)" d="m36.001 8.51c-.553 0-1-.448-1-1v-6.002c0-.552.447-1 1-1s1 .448 1 1v6.002c0 .553-.447 1-1 1z"/><path fill="rgb(40, 155, 215)" d="m47.003 33.49c-.553 0-1-.447-1-1s.447-1 1-1c1.654 0 3-1.346 3-3 0-.552.447-1 1-1s1 .448 1 1c0 2.758-2.243 5-5 5z"/><path fill="rgb(40, 155, 215)" d="m51.003 12.509c-.553 0-1-.448-1-1 0-1.654-1.346-3-3-3-.553 0-1-.448-1-1s.447-1 1-1c2.757 0 5 2.243 5 5 0 .553-.447 1-1 1z"/><path fill="rgb(40, 155, 215)" d="m51.003 29.491c-.553 0-1-.448-1-1v-16.982c0-.552.447-1 1-1s1 .448 1 1v16.981c0 .553-.447 1.001-1 1.001z"/><path fill="rgb(40, 155, 215)" d="m20.997 33.49c-.553 0-1-.447-1-1s.447-1 1-1c1.654 0 3-1.346 3-3 0-.552.447-1 1-1s1 .448 1 1c0 2.758-2.243 5-5 5z"/><path fill="rgb(40, 155, 215)" d="m24.997 12.509c-.553 0-1-.448-1-1 0-1.654-1.346-3-3-3-.553 0-1-.448-1-1s.447-1 1-1c2.757 0 5 2.243 5 5 0 .553-.447 1-1 1z"/><path fill="rgb(40, 155, 215)" d="m24.997 29.491c-.553 0-1-.448-1-1v-16.982c0-.552.447-1 1-1s1 .448 1 1v16.981c0 .553-.447 1.001-1 1.001z"/><path fill="rgb(40, 155, 215)" d="m47.003 8.509h-26.006c-.553 0-1-.448-1-1s.447-1 1-1h26.006c.553 0 1 .448 1 1s-.447 1-1 1z"/><path fill="rgb(40, 155, 215)" d="m47.003 33.49h-26.006c-.553 0-1-.447-1-1s.447-1 1-1h26.006c.553 0 1 .448 1 1s-.447 1-1 1z"/><path fill="rgb(40, 155, 215)" d="m41 3.508h-4.999c-.553 0-1-.448-1-1s.447-1 1-1h4.999c.553 0 1 .448 1 1s-.447 1-1 1z"/><path fill="rgb(40, 155, 215)" d="m46 4.508h-5c-.553 0-1-.448-1-1s.447-1 1-1h5c.553 0 1 .448 1 1s-.447 1-1 1z"/><path fill="rgb(40, 155, 215)" d="m24.029 44.494c-.553 0-1.005-.447-1.005-1s.442-1 .994-1h.011c.552 0 1 .447 1 1s-.448 1-1 1z"/><path fill="rgb(40, 155, 215)" d="m32.03 44.494c-.553 0-1.005-.447-1.005-1s.442-1 .994-1h.011c.552 0 1 .447 1 1s-.448 1-1 1z"/><path fill="rgb(40, 155, 215)" d="m40.031 44.494c-.553 0-1.005-.447-1.005-1s.442-1 .994-1h.011c.552 0 1 .447 1 1s-.448 1-1 1z"/><path fill="rgb(40, 155, 215)" d="m48.032 44.494c-.553 0-1.005-.447-1.005-1s.442-1 .994-1h.011c.552 0 1 .447 1 1s-.448 1-1 1z"/><path fill="rgb(40, 155, 215)" d="m36.029 20.51c-.553 0-1.005-.448-1.005-1s.442-1 .994-1h.011c.552 0 1 .448 1 1s-.448 1-1 1z"/><path fill="rgb(40, 155, 215)" d="m40.031 20.509c-.553 0-1.005-.448-1.005-1s.442-1 .994-1h.011c.552 0 1 .448 1 1s-.448 1-1 1z"/><path fill="rgb(40, 155, 215)" d="m35.002 24.51c-.209 0-.419-.065-.6-.2-1.526-1.145-2.402-2.895-2.402-4.802 0-3.309 2.691-6 6-6s6 2.691 6 6c0 1.904-.874 3.653-2.397 4.797-.44.333-1.066.243-1.4-.199-.331-.441-.242-1.068.199-1.4 1.015-.763 1.598-1.929 1.598-3.198 0-2.206-1.794-4-4-4s-4 1.794-4 4c0 1.271.584 2.438 1.604 3.202.441.332.531.958.199 1.4-.197.262-.497.4-.801.4z"/><path fill="rgb(40, 155, 215)" d="m35 26.51s-.001 0-.002 0c-.552-.001-.999-.449-.998-1.001l.003-2c.001-.552.448-.999 1-.999h.001c.553.001 1 .449.999 1.001l-.003 2c-.001.552-.448.999-1 .999z"/><path fill="rgb(40, 155, 215)" d="m41 26.51h-6c-.553 0-1-.448-1-1s.447-1 1-1h6c.553 0 1 .448 1 1s-.447 1-1 1z"/><path fill="rgb(40, 155, 215)" d="m41 26.51c-.553 0-1-.448-1-1v-2.004c0-.552.447-1 1-1s1 .448 1 1v2.004c0 .553-.447 1-1 1z"/><path fill="rgb(40, 155, 215)" d="m17 36.492c-.553 0-1-.447-1-1v-2.002c0-.552.447-1 1-1s1 .448 1 1v2.002c0 .553-.447 1-1 1z"/><path fill="rgb(40, 155, 215)" d="m13.001 40.492c-.553 0-1-.447-1-1v-1.854c0-.553.447-1 1-1s1 .447 1 1v1.854c0 .553-.447 1-1 1z"/></svg>