<svg enable-background="new 0 0 64 64" viewBox="0 0 64 80" xmlns="http://www.w3.org/2000/svg"><g fill="#289bd7"><path d="m5 60c-2.757 0-5-2.243-5-5 0-.553.447-1 1-1s1 .447 1 1c0 1.654 1.346 3 3 3 .553 0 1 .447 1 1s-.447 1-1 1z"/><path d="m59 60c-.553 0-1-.447-1-1s.447-1 1-1c1.654 0 3-1.346 3-3 0-.553.447-1 1-1s1 .447 1 1c0 2.757-2.243 5-5 5z"/><path d="m59 60h-54c-.553 0-1-.447-1-1s.447-1 1-1h54c.553 0 1 .447 1 1s-.447 1-1 1z"/><path d="m63 10.004c-.553 0-1-.447-1-1 0-1.654-1.346-3-3-3-.553 0-1-.447-1-1s.447-1 1-1c2.757 0 5 2.243 5 5 0 .553-.447 1-1 1z"/><path d="m1 10.004c-.553 0-1-.447-1-1 0-2.757 2.243-5 5-5 .553 0 1 .447 1 1s-.447 1-1 1c-1.654 0-3 1.346-3 3 0 .553-.447 1-1 1z"/><path d="m59 6.004h-54c-.553 0-1-.447-1-1s.447-1 1-1h54c.553 0 1 .447 1 1s-.447 1-1 1z"/><path d="m1 56c-.553 0-1-.447-1-1v-23.002c0-.553.447-1 1-1s1 .447 1 1v23.002c0 .553-.447 1-1 1z"/><path d="m63 56c-.553 0-1-.447-1-1v-23.002c0-.553.447-1 1-1s1 .447 1 1v23.002c0 .553-.447 1-1 1z"/><path d="m63 32.998h-62c-.553 0-1-.447-1-1s.447-1 1-1h62c.553 0 1 .447 1 1s-.447 1-1 1z"/><path d="m11.997 41.988h-10.997c-.553 0-1-.447-1-1s.447-1 1-1h10.997c.553 0 1 .447 1 1s-.447 1-1 1z"/><path d="m11.997 50.986h-10.997c-.553 0-1-.447-1-1s.447-1 1-1h10.997c.553 0 1 .447 1 1s-.447 1-1 1z"/><path d="m47.003 41.988h-30.006c-.553 0-1-.447-1-1s.447-1 1-1h30.006c.553 0 1 .447 1 1s-.447 1-1 1z"/><path d="m47.003 50.986h-30.006c-.553 0-1-.447-1-1s.447-1 1-1h30.006c.553 0 1 .447 1 1s-.447 1-1 1z"/><path d="m11.997 60c-.553 0-1-.447-1-1v-27.002c0-.553.447-1 1-1s1 .447 1 1v27.002c0 .553-.447 1-1 1z"/><path d="m16.997 60c-.553 0-1-.447-1-1v-27.002c0-.553.447-1 1-1s1 .447 1 1v27.002c0 .553-.447 1-1 1z"/><path d="m62.983 41.988h-10.997c-.553 0-1-.447-1-1s.447-1 1-1h10.997c.553 0 1 .447 1 1s-.447 1-1 1z"/><path d="m62.983 50.986h-10.997c-.553 0-1-.447-1-1s.447-1 1-1h10.997c.553 0 1 .447 1 1s-.447 1-1 1z"/><path d="m51.986 60c-.553 0-1-.447-1-1v-27.002c0-.553.447-1 1-1s1 .447 1 1v27.002c0 .553-.447 1-1 1z"/><path d="m46.986 60c-.553 0-1-.447-1-1v-27.002c0-.553.447-1 1-1s1 .447 1 1v27.002c0 .553-.447 1-1 1z"/><path d="m.999 32.998c-.164 0-.331-.04-.484-.126-.483-.269-.657-.877-.389-1.359l4.998-8.992c.268-.483.878-.659 1.359-.389.483.269.657.877.389 1.359l-4.998 8.992c-.183.33-.523.515-.875.515z"/><path d="m5.999 24c-.352 0-.692-.186-.875-.515l-4.998-8.992c-.269-.482-.095-1.091.389-1.359.481-.27 1.092-.094 1.359.389l4.998 8.992c.269.482.095 1.091-.389 1.359-.153.086-.32.126-.484.126z"/><path d="m63.001 32.998c-.352 0-.692-.186-.875-.515l-4.998-8.994c-.269-.482-.095-1.091.389-1.359.482-.271 1.091-.094 1.359.389l4.998 8.994c.269.482.095 1.091-.389 1.359-.153.086-.32.126-.484.126z"/><path d="m58.001 24c-.164 0-.331-.04-.484-.126-.483-.269-.657-.877-.389-1.359l4.998-8.994c.268-.482.877-.658 1.359-.389.483.269.657.877.389 1.359l-4.998 8.994c-.183.329-.523.515-.875.515z"/><path d="m58.002 24.006h-52.004c-.553 0-1-.447-1-1s.447-1 1-1h52.004c.553 0 1 .447 1 1s-.447 1-1 1z"/><path d="m63 15.006h-62c-.553 0-1-.447-1-1s.447-1 1-1h62c.553 0 1 .447 1 1s-.447 1-1 1z"/><path d="m1 15.008c-.553 0-1-.447-1-1v-5.004c0-.553.447-1 1-1s1 .447 1 1v5.004c0 .553-.447 1-1 1z"/><path d="m63 15.006c-.553 0-1-.447-1-1v-5.002c0-.553.447-1 1-1s1 .447 1 1v5.002c0 .553-.447 1-1 1z"/><path d="m28 42c-.553 0-1-.447-1-1v-9.002c0-.553.447-1 1-1s1 .447 1 1v9.002c0 .553-.447 1-1 1z"/><path d="m36.002 42c-.553 0-1-.447-1-1v-9.002c0-.553.447-1 1-1s1 .447 1 1v9.002c0 .553-.447 1-1 1z"/><path d="m28 15.002c-.553 0-1-.447-1-1v-3.998c0-.553.447-1 1-1s1 .447 1 1v3.998c0 .553-.447 1-1 1z"/><path d="m36.002 15.002c-.553 0-1-.447-1-1v-3.998c0-.553.447-1 1-1s1 .447 1 1v3.998c0 .553-.447 1-1 1z"/><path d="m31.984 39c-.553 0-1-.447-1-1v-2c0-.553.447-1 1-1s1 .447 1 1v2c0 .553-.447 1-1 1z"/><path d="m33 37h-2c-.553 0-1-.447-1-1s.447-1 1-1h2c.553 0 1 .447 1 1s-.447 1-1 1z"/><path d="m12 15.008c-.553 0-1-.447-1-1v-9.008c0-.553.447-1 1-1s1 .447 1 1v9.008c0 .553-.447 1-1 1z"/><path d="m17.001 15.008c-.553 0-1-.447-1-1v-9.008c0-.553.447-1 1-1s1 .447 1 1v9.008c0 .553-.447 1-1 1z"/><path d="m47.003 15.008c-.553 0-1-.447-1-1v-9.008c0-.553.447-1 1-1s1 .447 1 1v9.008c0 .553-.447 1-1 1z"/><path d="m52.004 15.008c-.553 0-1-.447-1-1v-9.008c0-.553.447-1 1-1s1 .447 1 1v9.008c0 .553-.447 1-1 1z"/><path d="m7.999 32.998c-.553 0-1-.447-1-1v-2.998c0-.553.447-1 1-1s1 .447 1 1v2.998c0 .553-.447 1-1 1z"/><path d="m16.003 32.998c-.553 0-1-.447-1-1v-2.998c0-.553.447-1 1-1s1 .447 1 1v2.998c0 .553-.447 1-1 1z"/><path d="m16.003 30h-8.004c-.553 0-1-.447-1-1s.447-1 1-1h8.004c.553 0 1 .447 1 1s-.447 1-1 1z"/><path d="m24.001 32.998c-.553 0-1-.447-1-1v-2.998c0-.553.447-1 1-1s1 .447 1 1v2.998c0 .553-.447 1-1 1z"/><path d="m24.001 30h-8.004c-.553 0-1-.447-1-1s.447-1 1-1h8.004c.553 0 1 .447 1 1s-.447 1-1 1z"/><path d="m31.999 32.998c-.553 0-1-.447-1-1v-2.998c0-.553.447-1 1-1s1 .447 1 1v2.998c0 .553-.447 1-1 1z"/><path d="m31.999 30h-8.004c-.553 0-1-.447-1-1s.447-1 1-1h8.004c.553 0 1 .447 1 1s-.447 1-1 1z"/><path d="m39.997 32.998c-.553 0-1-.447-1-1v-2.998c0-.553.447-1 1-1s1 .447 1 1v2.998c0 .553-.447 1-1 1z"/><path d="m39.997 30h-8.004c-.553 0-1-.447-1-1s.447-1 1-1h8.004c.553 0 1 .447 1 1s-.447 1-1 1z"/><path d="m47.995 32.998c-.553 0-1-.447-1-1v-2.998c0-.553.447-1 1-1s1 .447 1 1v2.998c0 .553-.447 1-1 1z"/><path d="m47.995 30h-8.004c-.553 0-1-.447-1-1s.447-1 1-1h8.004c.553 0 1 .447 1 1s-.447 1-1 1z"/><path d="m55.993 32.998c-.553 0-1-.447-1-1v-2.998c0-.553.447-1 1-1s1 .447 1 1v2.998c0 .553-.447 1-1 1z"/><path d="m55.993 30h-8.004c-.553 0-1-.447-1-1s.447-1 1-1h8.004c.553 0 1 .447 1 1s-.447 1-1 1z"/><path d="m12.003 29.998c-.553 0-1-.447-1-1v-2.998c0-.553.447-1 1-1s1 .447 1 1v2.998c0 .553-.447 1-1 1z"/><path d="m20.007 29.998c-.553 0-1-.447-1-1v-2.998c0-.553.447-1 1-1s1 .447 1 1v2.998c0 .553-.447 1-1 1z"/><path d="m20.007 27h-8.004c-.553 0-1-.447-1-1s.447-1 1-1h8.004c.553 0 1 .447 1 1s-.447 1-1 1z"/><path d="m28.005 29.998c-.553 0-1-.447-1-1v-2.998c0-.553.447-1 1-1s1 .447 1 1v2.998c0 .553-.447 1-1 1z"/><path d="m28.005 27h-8.004c-.553 0-1-.447-1-1s.447-1 1-1h8.004c.553 0 1 .447 1 1s-.447 1-1 1z"/><path d="m36.003 29.998c-.553 0-1-.447-1-1v-2.998c0-.553.447-1 1-1s1 .447 1 1v2.998c0 .553-.447 1-1 1z"/><path d="m36.003 27h-8.004c-.553 0-1-.447-1-1s.447-1 1-1h8.004c.553 0 1 .447 1 1s-.447 1-1 1z"/><path d="m44.001 29.998c-.553 0-1-.447-1-1v-2.998c0-.553.447-1 1-1s1 .447 1 1v2.998c0 .553-.447 1-1 1z"/><path d="m44.001 27h-8.004c-.553 0-1-.447-1-1s.447-1 1-1h8.004c.553 0 1 .447 1 1s-.447 1-1 1z"/><path d="m51.999 29.998c-.553 0-1-.447-1-1v-2.998c0-.553.447-1 1-1s1 .447 1 1v2.998c0 .553-.447 1-1 1z"/><path d="m51.999 27h-8.004c-.553 0-1-.447-1-1s.447-1 1-1h8.004c.553 0 1 .447 1 1s-.447 1-1 1z"/><path d="m16.007 27.004c-.553 0-1-.447-1-1v-2.998c0-.553.447-1 1-1s1 .447 1 1v2.998c0 .553-.447 1-1 1z"/><path d="m24.011 27.004c-.553 0-1-.447-1-1v-2.998c0-.553.447-1 1-1s1 .447 1 1v2.998c0 .553-.448 1-1 1z"/><path d="m24.011 24.006h-8.004c-.553 0-1-.447-1-1s.447-1 1-1h8.004c.553 0 1 .447 1 1s-.448 1-1 1z"/><path d="m32.009 27.004c-.553 0-1-.447-1-1v-2.998c0-.553.447-1 1-1s1 .447 1 1v2.998c0 .553-.447 1-1 1z"/><path d="m32.009 24.006h-8.004c-.553 0-1-.447-1-1s.447-1 1-1h8.004c.553 0 1 .447 1 1s-.447 1-1 1z"/><path d="m40.007 27.004c-.553 0-1-.447-1-1v-2.998c0-.553.447-1 1-1s1 .447 1 1v2.998c0 .553-.447 1-1 1z"/><path d="m40.007 24.006h-8.004c-.553 0-1-.447-1-1s.447-1 1-1h8.004c.553 0 1 .447 1 1s-.447 1-1 1z"/><path d="m48.005 27.004c-.553 0-1-.447-1-1v-2.998c0-.553.447-1 1-1s1 .447 1 1v2.998c0 .553-.447 1-1 1z"/><path d="m48.005 24.006h-8.004c-.553 0-1-.447-1-1s.447-1 1-1h8.004c.553 0 1 .447 1 1s-.447 1-1 1z"/><path d="m20.011 23.998c-.553 0-1-.447-1-1v-2.998c0-.553.447-1 1-1s1 .447 1 1v2.998c0 .553-.448 1-1 1z"/><path d="m28.015 23.998c-.553 0-1-.447-1-1v-2.998c0-.553.447-1 1-1s1 .447 1 1v2.998c0 .553-.448 1-1 1z"/><path d="m28.015 21h-8.004c-.553 0-1-.447-1-1s.447-1 1-1h8.004c.553 0 1 .447 1 1s-.448 1-1 1z"/><path d="m36.013 23.998c-.553 0-1-.447-1-1v-2.998c0-.553.447-1 1-1s1 .447 1 1v2.998c0 .553-.448 1-1 1z"/><path d="m36.013 21h-8.004c-.553 0-1-.447-1-1s.447-1 1-1h8.004c.553 0 1 .447 1 1s-.448 1-1 1z"/><path d="m44.011 23.998c-.553 0-1-.447-1-1v-2.998c0-.553.447-1 1-1s1 .447 1 1v2.998c0 .553-.448 1-1 1z"/><path d="m44.011 21h-8.004c-.553 0-1-.447-1-1s.447-1 1-1h8.004c.553 0 1 .447 1 1s-.448 1-1 1z"/><path d="m36.002 11.004h-8.002c-.553 0-1-.447-1-1s.447-1 1-1h8.002c.553 0 1 .447 1 1s-.447 1-1 1z"/></g></svg>