<svg enable-background="new 0 0 64 64" viewBox="0 0 64 80" xmlns="http://www.w3.org/2000/svg"><path fill="rgb(40, 155, 215)" d="m32.016 41.008c-4.963 0-9-4.037-9-9s4.037-9 9-9 9 4.038 9 9-4.037 9-9 9zm0-16c-3.859 0-7 3.14-7 7s3.141 7 7 7 7-3.14 7-7-3.141-7-7-7z"/><path fill="rgb(40, 155, 215)" d="m32.016 36.008c-2.206 0-4-1.794-4-4s1.794-4 4-4 4 1.794 4 4-1.794 4-4 4zm0-6c-1.103 0-2 .897-2 2 0 1.102.897 2 2 2s2-.897 2-2-.898-2-2-2z"/><path fill="rgb(40, 155, 215)" d="m32.016 30.008c-.553 0-1-.448-1-1v-2.001c0-.552.447-1 1-1s1 .448 1 1v2.001c0 .553-.448 1-1 1z"/><path fill="rgb(40, 155, 215)" d="m32.016 38.01c-.553 0-1-.447-1-1v-2.002c0-.553.447-1 1-1s1 .447 1 1v2.002c0 .553-.448 1-1 1z"/><path fill="rgb(40, 155, 215)" d="m29.895 30.886c-.256 0-.512-.098-.707-.293l-1.414-1.414c-.391-.391-.391-1.023 0-1.414s1.023-.391 1.414 0l1.414 1.414c.391.391.391 1.023 0 1.414-.196.196-.452.293-.707.293z"/><path fill="rgb(40, 155, 215)" d="m35.553 36.545c-.256 0-.512-.098-.707-.293l-1.416-1.416c-.391-.391-.391-1.023 0-1.414s1.023-.391 1.414 0l1.416 1.416c.391.391.391 1.023 0 1.414-.196.195-.451.293-.707.293z"/><path fill="rgb(40, 155, 215)" d="m29.016 33.008h-2c-.553 0-1-.448-1-1s.447-1 1-1h2c.553 0 1 .448 1 1s-.448 1-1 1z"/><path fill="rgb(40, 155, 215)" d="m37.018 33.008h-2.002c-.553 0-1-.448-1-1s.447-1 1-1h2.002c.553 0 1 .448 1 1s-.448 1-1 1z"/><path fill="rgb(40, 155, 215)" d="m28.48 36.543c-.256 0-.512-.098-.707-.293-.391-.391-.391-1.023 0-1.414l1.414-1.414c.391-.391 1.023-.391 1.414 0s.391 1.023 0 1.414l-1.414 1.414c-.195.195-.451.293-.707.293z"/><path fill="rgb(40, 155, 215)" d="m34.137 30.886c-.256 0-.512-.098-.707-.293-.391-.391-.391-1.023 0-1.414l1.416-1.416c.391-.391 1.023-.391 1.414 0s.391 1.023 0 1.414l-1.416 1.416c-.196.196-.451.293-.707.293z"/><path fill="rgb(40, 155, 215)" d="m32 54.992c-12.683 0-23-10.318-23-23s10.317-23 23-23 23 10.318 23 23-10.317 23-23 23zm0-44c-11.579 0-21 9.42-21 21s9.421 21 21 21 21-9.421 21-21-9.421-21-21-21z"/><path fill="rgb(40, 155, 215)" d="m32 50.992c-10.477 0-19-8.523-19-19s8.523-19 19-19 19 8.523 19 19-8.523 19-19 19zm0-36c-9.374 0-17 7.626-17 17 0 9.375 7.626 17 17 17s17-7.626 17-17-7.626-17-17-17z"/><path fill="rgb(40, 155, 215)" d="m34 3.992c-.553 0-1-.448-1-1 0-.551-.448-1-1-1s-1 .449-1 1c0 .552-.447 1-1 1s-1-.448-1-1c0-1.654 1.346-3 3-3s3 1.346 3 3c0 .552-.447 1-1 1z"/><path fill="rgb(40, 155, 215)" d="m30 25.265c-.553 0-1-.448-1-1v-10.165c0-.552.447-1 1-1s1 .448 1 1v10.165c0 .552-.447 1-1 1z"/><path fill="rgb(40, 155, 215)" d="m34 25.257c-.553 0-1-.448-1-1v-10.153c0-.552.447-1 1-1s1 .448 1 1v10.154c0 .552-.447.999-1 .999z"/><path fill="rgb(40, 155, 215)" d="m34 11.082c-.553 0-1-.448-1-1v-7.09c0-.552.447-1 1-1s1 .448 1 1v7.09c0 .552-.447 1-1 1z"/><path fill="rgb(40, 155, 215)" d="m30 11.082c-.553 0-1-.448-1-1v-7.09c0-.552.447-1 1-1s1 .448 1 1v7.09c0 .552-.447 1-1 1z"/><path fill="rgb(40, 155, 215)" d="m32 64.008c-1.654 0-3-1.346-3-3 0-.553.447-1 1-1s1 .447 1 1c0 .552.448 1 1 1s1-.448 1-1c0-.553.447-1 1-1s1 .447 1 1c0 1.654-1.346 3-3 3z"/><path fill="rgb(40, 155, 215)" d="m34 50.9c-.553 0-1-.447-1-1v-10.166c0-.553.447-1 1-1s1 .447 1 1v10.166c0 .553-.447 1-1 1z"/><path fill="rgb(40, 155, 215)" d="m30 50.896c-.553 0-1-.447-1-1v-10.152c0-.553.447-1 1-1s1 .447 1 1v10.152c0 .553-.447 1-1 1z"/><path fill="rgb(40, 155, 215)" d="m30 62.008c-.553 0-1-.447-1-1v-7.09c0-.553.447-1 1-1s1 .447 1 1v7.09c0 .553-.447 1-1 1z"/><path fill="rgb(40, 155, 215)" d="m34 62.008c-.553 0-1-.447-1-1v-7.09c0-.553.447-1 1-1s1 .447 1 1v7.09c0 .553-.447 1-1 1z"/><path fill="rgb(40, 155, 215)" d="m10.074 13.901c-.256 0-.512-.098-.707-.292-.566-.567-.879-1.32-.879-2.122 0-.801.313-1.555.879-2.121 1.171-1.169 3.073-1.168 4.242 0 .391.39.391 1.024 0 1.414s-1.023.39-1.414 0-1.023-.39-1.414 0c-.188.188-.293.44-.293.707s.104.518.293.707c.391.391.391 1.024 0 1.415-.195.195-.451.292-.707.292z"/><path fill="rgb(40, 155, 215)" d="m25.117 28.945c-.256 0-.512-.098-.707-.293l-7.188-7.188c-.391-.391-.391-1.024 0-1.414.391-.391 1.023-.391 1.414 0l7.188 7.188c.391.391.391 1.024 0 1.414-.195.195-.451.293-.707.293z"/><path fill="rgb(40, 155, 215)" d="m27.939 26.111c-.256 0-.512-.098-.707-.293l-7.18-7.18c-.391-.391-.391-1.023 0-1.414s1.023-.391 1.414 0l7.18 7.18c.391.391.391 1.023 0 1.414-.195.195-.451.293-.707.293z"/><path fill="rgb(40, 155, 215)" d="m17.916 16.087c-.256 0-.512-.098-.707-.293l-5.014-5.014c-.391-.391-.391-1.023 0-1.414s1.023-.391 1.414 0l5.014 5.014c.391.391.391 1.023 0 1.414-.195.195-.451.293-.707.293z"/><path fill="rgb(40, 155, 215)" d="m15.088 18.915c-.256 0-.512-.098-.707-.293l-5.014-5.014c-.391-.391-.391-1.023 0-1.414s1.023-.391 1.414 0l5.014 5.014c.391.391.391 1.023 0 1.414-.195.195-.451.293-.707.293z"/><path fill="rgb(40, 155, 215)" d="m52.513 55.511c-.769 0-1.537-.293-2.122-.878-.391-.391-.391-1.023 0-1.414s1.023-.391 1.414 0 1.025.391 1.416 0c.389-.39.388-1.024-.002-1.414-.391-.391-.391-1.023 0-1.414s1.023-.391 1.414 0c1.169 1.169 1.17 3.071.003 4.241-.586.586-1.355.879-2.123.879z"/><path fill="rgb(40, 155, 215)" d="m46.072 44.242c-.256 0-.512-.098-.707-.293l-7.188-7.188c-.391-.391-.391-1.023 0-1.414s1.023-.391 1.414 0l7.188 7.188c.391.391.391 1.023 0 1.414-.195.196-.451.293-.707.293z"/><path fill="rgb(40, 155, 215)" d="m43.24 47.068c-.256 0-.512-.098-.707-.293l-7.178-7.18c-.391-.391-.391-1.023 0-1.414s1.023-.391 1.414 0l7.178 7.18c.391.391.391 1.023 0 1.414-.195.196-.451.293-.707.293z"/><path fill="rgb(40, 155, 215)" d="m51.098 54.926c-.256 0-.512-.098-.707-.293l-5.014-5.014c-.391-.391-.391-1.023 0-1.414s1.023-.391 1.414 0l5.014 5.014c.391.391.391 1.023 0 1.414-.196.195-.451.293-.707.293z"/><path fill="rgb(40, 155, 215)" d="m53.926 52.098c-.256 0-.512-.098-.707-.293l-5.014-5.014c-.391-.391-.391-1.023 0-1.414s1.023-.391 1.414 0l5.014 5.014c.391.391.391 1.023 0 1.414-.195.195-.451.293-.707.293z"/><path fill="rgb(40, 155, 215)" d="m2.992 35c-.001 0-.001 0-.002 0-1.653-.003-2.998-1.349-2.998-3 0-1.654 1.346-3 3-3 .553 0 1 .448 1 1s-.447 1-1 1c-.552 0-1 .449-1 1s.449 1 1.002 1c.552.001.999.449.998 1.002-.001.552-.448.998-1 .998z"/><path fill="rgb(40, 155, 215)" d="m24.266 35-10.166-.002c-.553 0-1-.448-1-1 0-.553.448-1 1-1l10.166.002c.553 0 1 .448 1 1 0 .553-.449 1-1 1z"/><path fill="rgb(40, 155, 215)" d="m24.258 31h-10.154c-.553 0-1-.448-1-1s.447-1 1-1h10.154c.553 0 1 .448 1 1s-.447 1-1 1z"/><path fill="rgb(40, 155, 215)" d="m10.082 31h-7.09c-.553 0-1-.448-1-1s.447-1 1-1h7.09c.553 0 1 .448 1 1s-.447 1-1 1z"/><path fill="rgb(40, 155, 215)" d="m10.082 35h-7.09c-.553 0-1-.447-1-1s.447-1 1-1h7.09c.553 0 1 .447 1 1s-.447 1-1 1z"/><path fill="rgb(40, 155, 215)" d="m61.008 35c-.552 0-.999-.446-1-.998-.001-.553.446-1.001.998-1.002.553-.001 1.002-.45 1.002-1.001s-.448-.999-1-.999c-.553 0-1-.448-1-1s.447-1 1-1c1.654 0 3 1.345 3 2.999 0 1.652-1.345 2.999-2.998 3.001-.001 0-.001 0-.002 0z"/><path fill="rgb(40, 155, 215)" d="m49.9 31-10.166-.001c-.553 0-1-.448-1-1s.448-1 1-1l10.166.001c.553 0 1 .448 1 1s-.448 1-1 1z"/><path fill="rgb(40, 155, 215)" d="m49.896 34.998h-10.152c-.553 0-1-.447-1-1s.447-1 1-1h10.152c.553 0 1 .447 1 1s-.447 1-1 1z"/><path fill="rgb(40, 155, 215)" d="m61.008 35h-7.09c-.553 0-1-.447-1-1s.447-1 1-1h7.09c.553 0 1 .447 1 1s-.447 1-1 1z"/><path fill="rgb(40, 155, 215)" d="m61.008 31h-7.09c-.553 0-1-.448-1-1s.447-1 1-1h7.09c.553 0 1 .448 1 1s-.447 1-1 1z"/><path fill="rgb(40, 155, 215)" d="m11.488 55.51c-.769 0-1.536-.292-2.121-.877-1.17-1.17-1.17-3.072 0-4.242.391-.391 1.023-.391 1.414 0s.391 1.023 0 1.414c-.39.39-.39 1.024 0 1.414.391.391 1.023.391 1.414 0s1.023-.391 1.414 0 .391 1.023 0 1.414c-.585.585-1.352.877-2.121.877z"/><path fill="rgb(40, 155, 215)" d="m20.756 47.07c-.256 0-.512-.098-.707-.293-.391-.391-.391-1.023 0-1.414l7.189-7.188c.391-.391 1.023-.391 1.414 0s.391 1.023 0 1.414l-7.189 7.188c-.195.196-.451.293-.707.293z"/><path fill="rgb(40, 155, 215)" d="m17.932 44.24c-.256 0-.512-.098-.707-.293-.391-.391-.391-1.023 0-1.414l7.18-7.18c.391-.391 1.023-.391 1.414 0s.391 1.023 0 1.414l-7.18 7.18c-.196.196-.451.293-.707.293z"/><path fill="rgb(40, 155, 215)" d="m10.074 52.098c-.256 0-.512-.098-.707-.293-.391-.391-.391-1.023 0-1.414l5.014-5.014c.391-.391 1.023-.391 1.414 0s.391 1.023 0 1.414l-5.014 5.014c-.195.195-.451.293-.707.293z"/><path fill="rgb(40, 155, 215)" d="m12.902 54.926c-.256 0-.512-.098-.707-.293-.391-.391-.391-1.023 0-1.414l5.014-5.014c.391-.391 1.023-.391 1.414 0s.391 1.023 0 1.414l-5.014 5.014c-.195.195-.451.293-.707.293z"/><path fill="rgb(40, 155, 215)" d="m53.926 13.902c-.256 0-.512-.098-.707-.292-.391-.39-.391-1.023-.001-1.414.391-.391.391-1.026.001-1.416-.389-.39-1.023-.39-1.414 0s-1.023.39-1.414 0-.391-1.024 0-1.415c1.171-1.168 3.073-1.168 4.242 0 1.17 1.169 1.17 3.073.001 4.244-.196.196-.452.293-.708.293z"/><path fill="rgb(40, 155, 215)" d="m36.055 26.115c-.256 0-.512-.098-.707-.293-.391-.391-.391-1.024 0-1.414l7.188-7.187c.391-.391 1.023-.391 1.414 0s.391 1.024 0 1.414l-7.188 7.187c-.196.195-.451.293-.707.293z"/><path fill="rgb(40, 155, 215)" d="m38.889 28.937c-.256 0-.512-.098-.707-.293-.391-.391-.391-1.024 0-1.414l7.18-7.178c.391-.391 1.023-.391 1.414 0s.391 1.024 0 1.414l-7.18 7.178c-.196.195-.451.293-.707.293z"/><path fill="rgb(40, 155, 215)" d="m48.912 18.916c-.256 0-.512-.098-.707-.293-.391-.391-.391-1.023 0-1.414l5.014-5.013c.391-.391 1.023-.391 1.414 0s.391 1.023 0 1.414l-5.014 5.013c-.195.195-.451.293-.707.293z"/><path fill="rgb(40, 155, 215)" d="m46.084 16.087c-.256 0-.512-.098-.707-.293-.391-.391-.391-1.023 0-1.414l5.014-5.014c.391-.391 1.023-.391 1.414 0s.391 1.023 0 1.414l-5.014 5.014c-.195.196-.451.293-.707.293z"/><path fill="rgb(40, 155, 215)" d="m15.369 26.104c-.128 0-.258-.025-.383-.077l-3.695-1.531c-.51-.211-.752-.796-.541-1.307s.799-.752 1.307-.541l3.695 1.531c.51.211.752.796.541 1.307-.159.385-.532.618-.924.618z"/><path fill="rgb(40, 155, 215)" d="m52.324 41.41c-.128 0-.258-.024-.383-.076l-3.695-1.531c-.51-.211-.752-.797-.541-1.307.211-.511.798-.751 1.307-.541l3.695 1.531c.51.211.752.797.541 1.307-.159.385-.532.617-.924.617z"/><path fill="rgb(40, 155, 215)" d="m15.369 26.104c-.128 0-.258-.025-.383-.077l-3.695-1.531c-.51-.211-.752-.796-.541-1.307s.799-.752 1.307-.541l3.695 1.531c.51.211.752.796.541 1.307-.159.385-.532.618-.924.618z"/><path fill="rgb(40, 155, 215)" d="m52.324 41.41c-.128 0-.258-.024-.383-.076l-3.695-1.531c-.51-.211-.752-.797-.541-1.307.211-.511.798-.751 1.307-.541l3.695 1.531c.51.211.752.797.541 1.307-.159.385-.532.617-.924.617z"/><path fill="rgb(40, 155, 215)" d="m23.58 53.316c-.128 0-.258-.024-.383-.076-.51-.211-.752-.796-.541-1.307l1.531-3.697c.211-.511.8-.751 1.307-.541.51.211.752.796.541 1.307l-1.531 3.697c-.159.385-.532.617-.924.617z"/><path fill="rgb(40, 155, 215)" d="m38.887 16.361c-.128 0-.258-.025-.383-.077-.51-.211-.753-.796-.541-1.307l1.531-3.695c.211-.511.8-.751 1.307-.541.51.211.753.796.541 1.307l-1.531 3.695c-.16.385-.533.618-.924.618z"/></svg>