<svg enable-background="new 0 0 100 100" viewBox="0 0 100 125" xmlns="http://www.w3.org/2000/svg"><path fill="rgb(40, 155, 215)" d="m78.5 36.5c-1.4-2.2-3.4-3-4.6-3.3 0-.3-.1-.6-.1-1-.5-3.6-3.2-5.8-8.1-6.6-.2-.6-.5-1.1-.8-1.6-1.8-2.6-5.2-3.6-9.9-2.8-1.2-1.2-2.8-1.8-4.7-1.8h-2.1c-1.9 0-3.4.6-4.6 1.8-4.7-.7-8.1.2-9.9 2.8-.3.5-.6 1-.8 1.6-4.8.8-7.6 3-8.1 6.6 0 .3-.1.6-.1 1-1.2.3-3.2 1.1-4.6 3.3-2 3.3-1.6 8.4 1.2 15.1 3.3 7.9 11.3 13.8 17.9 17.5l-.7.7c-1.2 1.3-1.8 2.9-1.6 4.5.1 1.7.9 3.3 2.2 4.4.8.7 1.9 1 2.9 1 1.1 0 2.2-.4 3.1-1.1l.2-.2c2.3-1.9 5.6-1.9 7.8.1 1.7 1.5 4.3 1.6 6.1.2 1.3-1.1 2.1-2.7 2.2-4.3.1-1.7-.5-3.3-1.6-4.5l-.6-.7c6.5-3.7 14.6-9.7 18-17.6 2.9-6.7 3.3-11.7 1.3-15.1zm-19 37.8c-.1 1.1-.6 2.2-1.5 2.9-1 .8-2.5.8-3.5-.1-3-2.6-7.4-2.6-10.4-.1l-.2.2c-1 .9-2.5.9-3.4.1-.9-.7-1.4-1.8-1.5-3-.1-1.1.3-2.2 1.1-3l1-1.1c4.3 2.3 7.6 3.5 7.9 3.6.1 0 .2.1.3.1s.2 0 .3-.1c.3-.1 3.6-1.3 7.8-3.6l.9 1c1.1 1.2 1.2 2.3 1.2 3.1zm15.9-23.4c-5.2 12.3-23.4 19.9-26.1 20.9-2.7-1.1-20.8-8.6-26.1-20.9-2.5-6-3-10.6-1.4-13.3.8-1.4 2-2 2.9-2.3.5 12.5 13.7 25.4 14.3 26 .2.2.4.3.7.3s.5-.1.7-.3c.4-.4.4-1 0-1.4-.2-.1-15.3-15-13.5-27.3.3-2.4 2.2-4 5.5-4.7-1.6 10.7 9.8 30.3 10.4 31.2.2.3.5.5.9.5.2 0 .3 0 .5-.1.5-.3.6-.9.4-1.4-4.1-6.9-13.6-26.3-9.1-32.8 1.2-1.8 3.6-2.5 6.9-2.2-4.8 9.2 3.6 33.8 4 34.9.1.4.5.7.9.7.1 0 .2 0 .3-.1.5-.2.8-.7.6-1.3-2.5-7.3-8.1-27.8-3.7-34 .9-1.2 2.1-1.8 3.7-1.8h2.1c1.7 0 2.9.6 3.8 1.8 4.5 6.2-1.1 26.7-3.7 34.1-.2.5.1 1.1.6 1.3s1.1-.1 1.3-.6c.4-1.1 8.8-25.7 4-34.9 3.4-.3 5.7.4 6.9 2.2 4.5 6.5-5 25.9-9.1 32.8-.3.5-.1 1.1.4 1.4.2.1.3.1.5.1.3 0 .7-.2.9-.5.5-.9 11.9-20.6 10.4-31.2 3.4.7 5.2 2.3 5.5 4.7 1.7 12.3-13.4 27.2-13.5 27.3-.4.4-.4 1 0 1.4.2.2.5.3.7.3.3 0 .5-.1.7-.3.6-.6 13.8-13.5 14.3-26 .8.3 2 .9 2.8 2.2 1.6 2.7 1.2 7.3-1.4 13.3z"/><circle fill="rgb(40, 155, 215)" cx="47.7" cy="25" r="1.9"/><circle fill="rgb(40, 155, 215)" cx="53" cy="28.5" r="1"/><circle fill="rgb(40, 155, 215)" cx="60.7" cy="33" r="1"/><circle fill="rgb(40, 155, 215)" cx="46" cy="33" r=".6"/><circle fill="rgb(40, 155, 215)" cx="39.1" cy="26.2" r=".8"/><circle fill="rgb(40, 155, 215)" cx="37.1" cy="31.5" r=".7"/><circle fill="rgb(40, 155, 215)" cx="73.1" cy="47.2" r=".7"/><circle fill="rgb(40, 155, 215)" cx="70" cy="33.5" r=".7"/><circle fill="rgb(40, 155, 215)" cx="29.9" cy="32.7" r="1.5"/><circle fill="rgb(40, 155, 215)" cx="30.8" cy="39.1" r=".9"/><circle fill="rgb(40, 155, 215)" cx="24" cy="40.8" r=".8"/><circle fill="rgb(40, 155, 215)" cx="24.1" cy="46.8" r="1.5"/><circle fill="rgb(40, 155, 215)" cx="75.7" cy="41.2" r="1.5"/><circle fill="rgb(40, 155, 215)" cx="61.2" cy="26.6" r="1.5"/></svg>