<svg enable-background="new 0 0 100 100" viewBox="0 0 100 125" xmlns="http://www.w3.org/2000/svg"><path fill="rgb(40, 155, 215)" d="m89.1 85.3h-2.7c-.6 0-1 .4-1 1s.4 1 1 1h2.7c.6 0 1-.4 1-1s-.5-1-1-1z"/><path fill="rgb(40, 155, 215)" d="m81.3 85.3h-4.2v-7.7c0-2-1.6-3.6-3.6-3.6s-3.6 1.6-3.6 3.6v7.7h-3v-35.5c0-2-1.6-3.6-3.6-3.6s-3.6 1.6-3.6 3.6v35.5h-3v-27.9c0-2-1.6-3.6-3.6-3.6s-3.6 1.6-3.6 3.6v27.9h-3v-54.1c0-2-1.6-3.6-3.6-3.6s-3.6 1.6-3.6 3.6v54.1h-3v-1.6c0-2-1.6-3.6-3.6-3.6s-3.6 1.6-3.6 3.6v1.6h-5.8c-.6 0-1 .4-1 1s.4 1 1 1h5.8 7.2 3 7.2 3 7.2 3 7.2 3 7.2 4.2c.6 0 1-.4 1-1s-.4-1-1-1zm-50.2 0v-1.6c0-.9.7-1.6 1.6-1.6s1.6.7 1.6 1.6v1.6zm10.2 0v-54.1c0-.9.7-1.6 1.6-1.6s1.6.7 1.6 1.6v54.1zm10.2 0v-27.9c0-.9.7-1.6 1.6-1.6s1.6.7 1.6 1.6v27.9zm10.2 0v-35.5c0-.9.7-1.6 1.6-1.6s1.6.7 1.6 1.6v35.5zm10.2 0v-7.7c0-.9.7-1.6 1.6-1.6s1.6.7 1.6 1.6v7.7z"/><path fill="rgb(40, 155, 215)" d="m68.3 19c-1.8 0-3.3-1.5-3.3-3.3s1.5-3.3 3.3-3.3 3.3 1.5 3.3 3.3-1.5 3.3-3.3 3.3zm0-4.6c-.7 0-1.3.6-1.3 1.3s.6 1.3 1.3 1.3 1.3-.6 1.3-1.3-.6-1.3-1.3-1.3z"/><path fill="rgb(40, 155, 215)" d="m12.3 77.2c-1.8 0-3.3-1.5-3.3-3.3s1.5-3.3 3.3-3.3 3.3 1.5 3.3 3.3-1.5 3.3-3.3 3.3zm0-4.7c-.7 0-1.3.6-1.3 1.3s.6 1.3 1.3 1.3 1.3-.6 1.3-1.3-.6-1.3-1.3-1.3z"/><path fill="rgb(40, 155, 215)" d="m84.3 67c-3.1 0-5.6-2.5-5.6-5.6s2.5-5.6 5.6-5.6 5.6 2.5 5.6 5.6-2.5 5.6-5.6 5.6zm0-9.2c-2 0-3.6 1.6-3.6 3.6s1.6 3.6 3.6 3.6 3.6-1.6 3.6-3.6-1.6-3.6-3.6-3.6z"/><path fill="rgb(40, 155, 215)" d="m23.8 35.2c-3.1 0-5.6-2.5-5.6-5.6s2.5-5.6 5.6-5.6 5.6 2.5 5.6 5.6-2.5 5.6-5.6 5.6zm0-9.3c-2 0-3.6 1.6-3.6 3.6s1.6 3.6 3.6 3.6 3.6-1.6 3.6-3.6-1.6-3.6-3.6-3.6z"/><path fill="rgb(40, 155, 215)" d="m84.3 78.1c-.3 0-.5-.2-.5-.5v-6.6c0-.3.2-.5.5-.5s.5.2.5.5v6.6c0 .3-.2.5-.5.5z"/><path fill="rgb(40, 155, 215)" d="m24.1 62.6c-.3 0-.5-.2-.5-.5v-19.8c0-.3.2-.5.5-.5s.5.2.5.5v19.8c0 .2-.3.5-.5.5z"/><path fill="rgb(40, 155, 215)" d="m24.1 69.8c-.3 0-.5-.2-.5-.5v-2.9c0-.3.2-.5.5-.5s.5.2.5.5v2.9c0 .3-.3.5-.5.5z"/></svg>