<svg enable-background="new 0 0 100 100" viewBox="0 0 100 125" xmlns="http://www.w3.org/2000/svg"><path fill="rgb(40, 155, 215)" d="m42.7 73.6c-.1 1.3 0 3.8 1.5 5.6 1.1 1.3 2.6 1.9 4.6 1.9 6.1 0 8.2-3.5 8.8-5.4 1.8-.9 5.3-3.4 6.8-10.2 4-3.5 5.7-8.8 4.1-13.2-.9-2.5-2.7-4.5-5.2-5.8.6-1.9 1.5-6.1-1-9-.7-.8-1.6-1.4-2.7-1.9 0-1.4-.2-4.4-2.4-6.5-.7-.7-1.6-1.2-2.6-1.5.3-6.7-5.7-8.7-7.6-9.2-.8-.2-1.6 0-2.2.4-6.2 4.1-6.2 9.5-6 11.4-1.6 1.1-2.9 2.3-3.7 3.9-1.4 2.7-1 5.4-.7 6.7-1.7 1.4-3 2.9-3.7 4.6-1.6 3.6-.6 6.9-.1 8.2-1.5 2.1-2.3 4.3-2.3 6.9.2 6.6 8.3 10.8 14.4 13.1zm15.5-.5c0-.1 0-.1 0-.2 0-4.6-2.2-6-4.2-7.3-1.8-1.2-3.2-2.1-3.3-5.4 0-2.1 1.5-3.2 2.5-3.7s2.1-.7 3.2-.7c1.5 0 3.1.5 4.2 1.3 2 1.6 2.7 4.3 1.9 7.9-.9 4.6-2.9 6.9-4.3 8.1zm8.6-20.1c1 2.9.3 6.4-1.9 9.2 0-3.7-1.8-5.7-3-6.7-2.6-2-6.5-2.3-9.6-.8-2.3 1.2-3.6 3.2-3.6 5.5.1 4.3 2.3 5.7 4.2 7 1.9 1.2 3.3 2.2 3.3 5.6 0 .6-.1 1.2-.2 1.8-.5 2-2.2 4.4-7 4.4-1.4 0-2.4-.4-3.1-1.2-.9-1-1.1-2.5-1.1-3.6 2.6.9 4.5 1.3 4.8 1.4h.2c.5 0 .9-.3 1-.8s-.2-1.1-.8-1.2c-.2 0-19.4-4.4-19.4-13.2 0-2.7 1.1-5.2 3.2-7.2 4.4-4.3 12.6-6.6 22.1-6.4 5.6.2 9.5 2.4 10.9 6.2zm-20.7-32.4c.2-.1.4-.1.6-.1 1.9.5 6 2 6.1 6.7-1.9-.3-4.2-.1-6.9.4-1.9.4-3.6 1-5 1.6 0-1.9.7-5.7 5.2-8.6zm-9 14.5c1.4-2.6 4.5-4.5 9.3-5.5 4.6-1 7.8-.6 9.7 1.1 1.4 1.3 1.7 3.2 1.8 4.4-3-.6-7.1-.3-12.1.9-3.7.9-6.8 2.1-9.2 3.6-.3-1.1-.4-2.8.5-4.5zm-4.3 11.2c1.7-3.8 6.2-6.6 13.4-8.3 7.5-1.9 12.6-1.5 14.8.9 1.8 2.1 1.2 5.3.7 6.9-1.7-.6-3.6-.9-5.7-1-10-.2-18.8 2.4-23.5 7-.5-1.2-.7-3.3.3-5.5z"/></svg>