<?xml version="1.0" encoding="utf-8"?>
<!-- Generator: Adobe Illustrator 21.0.2, SVG Export Plug-In . SVG Version: 6.00 Build 0)  -->
<svg version="1.1" id="Layer_1" xmlns="http://www.w3.org/2000/svg" xmlns:xlink="http://www.w3.org/1999/xlink" x="0px" y="0px"
	 viewBox="0 0 47.1 54.3" style="enable-background:new 0 0 47.1 54.3;" xml:space="preserve">
<style type="text/css">
	.st0{fill:#206795;}
</style>
<rect x="20.9" y="15.6" class="st0" width="5.3" height="35.6"/>
<rect x="20.9" y="17.4" transform="matrix(2.517104e-11 -1 1 2.517104e-11 -3.7278 50.7142)" class="st0" width="5.3" height="19.7"/>
<polygon class="st0" points="0,36.8 6.4,29 11.8,36.8 "/>
<polygon class="st0" points="35.3,36.6 41.6,28.7 47.1,36.6 "/>
<path class="st0" d="M38.5,36.6c-1.5,6.8-7.6,11.9-14.9,11.9S10.2,43.4,8.7,36.6H2.8c1.6,10,10.3,17.7,20.8,17.7s19.2-7.7,20.8-17.7
	H38.5z"/>
<path class="st0" d="M23.6,0C18,0,13.5,4.5,13.5,10.1S18,20.2,23.6,20.2s10.1-4.5,10.1-10.1S29.1,0,23.6,0z M23.6,15.5
	c-3,0-5.4-2.4-5.4-5.4s2.4-5.4,5.4-5.4S29,7.1,29,10.1S26.6,15.5,23.6,15.5z"/>
</svg>
