<?xml version="1.0" encoding="utf-8"?>
<!-- Generator: Adobe Illustrator 21.0.2, SVG Export Plug-In . SVG Version: 6.00 Build 0)  -->
<svg version="1.1" id="Layer_1" xmlns="http://www.w3.org/2000/svg" xmlns:xlink="http://www.w3.org/1999/xlink" x="0px" y="0px"
	 viewBox="0 0 308.6 393.4" style="enable-background:new 0 0 308.6 393.4;" xml:space="preserve">
<path d="M249.5,253.1l42.8-40.1c0,0,20.2,26.4,15.7,63c-0.5,4.2-13.3-4-13.3-4s-15.6,73.5-112,104c-1,0.3-14.6,18.9-16.7,17.3
	c-7.9-6.1-26.4-18-26.4-18s-66,8.4-120.9-82.7l-18.3,3.2c-2.5-10.3,11-65.8,11-65.8l49.5,35L48,276.8c29.2,41.2,69,37,69,37
	s32.7-41.2,16.2-148.4c-0.4-2.8-52.6-2.8-52.6-2.8L79.3,120l50.7-0.7V98.7c0,0-33.7-17.9-33.7-46.4c0-21,13-52.2,55.2-52.2
	c30.8,0,47,26.1,48.1,49.8c1,22-21.6,44.2-21.6,44.2l2.2,23.2l41.6,0.1l0.8,42.9l-50.3,4c0,0-6.8,144.9,34.4,143.5
	c12.7-0.4,38.1-13.5,55.8-45L249.5,253.1z"/>
</svg>
