<?xml version="1.0" encoding="utf-8"?>
<!-- Generator: Adobe Illustrator 21.0.2, SVG Export Plug-In . SVG Version: 6.00 Build 0)  -->
<svg version="1.1" id="Layer_1" xmlns="http://www.w3.org/2000/svg" xmlns:xlink="http://www.w3.org/1999/xlink" x="0px" y="0px"
	 viewBox="0 0 170.5 194.3" style="enable-background:new 0 0 170.5 194.3;" xml:space="preserve">
<path d="M162.1,133.8c-0.8,0-1.5,0.1-2.2,0.3l-17.1-10c3.8-8.2,6-17.3,6-26.9c0-9.6-2.2-18.8-6-26.9l17.1-10
	c0.7,0.2,1.5,0.3,2.2,0.3c4.6,0,8.4-3.7,8.4-8.4s-3.7-8.4-8.4-8.4c-3.9,0-7.2,2.7-8.1,6.4l-17.1,10C126.4,45.6,110,35.6,91.1,33.9
	V14.4c1.6-1.5,2.5-3.6,2.5-6c0-4.6-3.7-8.4-8.4-8.4s-8.4,3.7-8.4,8.4c0,2.4,1,4.5,2.5,6v19.5c-18.9,1.7-35.3,11.7-45.8,26.3
	l-17.1-10c-0.9-3.7-4.2-6.4-8.1-6.4c-4.6,0-8.4,3.7-8.4,8.4s3.7,8.4,8.4,8.4c0.8,0,1.5-0.1,2.2-0.3l17.1,10c-3.8,8.2-6,17.3-6,26.9
	c0,9.6,2.2,18.8,6,26.9l-17.1,10c-0.7-0.2-1.5-0.3-2.2-0.3c-4.6,0-8.4,3.7-8.4,8.4c0,4.6,3.7,8.4,8.4,8.4c3.9,0,7.2-2.7,8.1-6.4
	l17.1-10c10.5,14.6,26.9,24.6,45.8,26.3v19.5c-1.6,1.5-2.5,3.6-2.5,6c0,4.6,3.7,8.4,8.4,8.4s8.4-3.7,8.4-8.4c0-2.4-1-4.5-2.5-6
	v-19.5c18.9-1.7,35.3-11.7,45.8-26.3l17.1,10c0.9,3.7,4.2,6.4,8.1,6.4c4.6,0,8.4-3.7,8.4-8.4C170.5,137.5,166.7,133.8,162.1,133.8z
	 M91.1,46.5c14.2,1.6,26.7,9.1,34.9,20L96.2,84c-1.5-1.2-3.2-2.2-5.1-2.9V46.5z M79.4,46.5v34.5c-1.9,0.7-3.6,1.7-5.1,2.9L44.5,66.6
	C52.7,55.7,65.2,48.2,79.4,46.5z M38.6,117.7c-2.8-6.3-4.3-13.2-4.3-20.5s1.6-14.3,4.3-20.5l29.8,17.5c-0.2,1-0.3,2-0.3,3.1
	s0.1,2.1,0.3,3.1L38.6,117.7z M79.4,147.8c-14.2-1.6-26.7-9.1-34.9-20l29.8-17.5c1.5,1.2,3.2,2.2,5.1,2.9V147.8z M85.2,105.5
	c-4.6,0-8.4-3.7-8.4-8.4c0-4.6,3.7-8.4,8.4-8.4s8.4,3.7,8.4,8.4C93.6,101.8,89.9,105.5,85.2,105.5z M91.1,147.8v-34.5
	c1.9-0.7,3.6-1.7,5.1-2.9l29.8,17.5C117.8,138.7,105.3,146.2,91.1,147.8z M131.9,117.7l-29.8-17.5c0.2-1,0.3-2,0.3-3.1
	s-0.1-2.1-0.3-3.1l29.8-17.5c2.8,6.3,4.3,13.2,4.3,20.5S134.7,111.4,131.9,117.7z"/>
</svg>
